M48
; DRILL file {KiCad (5.1.4)-1} date 2/18/2021 4:48:34 PM
; FORMAT={-:-/ absolute / inch / decimal}
; #@! TF.CreationDate,2021-02-18T16:48:34-08:00
; #@! TF.GenerationSoftware,Kicad,Pcbnew,(5.1.4)-1
; #@! TF.FileFunction,NonPlated,1,2,NPTH
FMAT,2
INCH
T1C0.0256
T2C0.0670
T3C0.0689
T4C0.1200
T5C0.1570
%
G90
G05
T1
X10.7613Y-1.2773
X10.9888Y-1.2773
T2
X10.875Y-1.9563
X10.875Y-2.3563
X1.5Y-1.9563
X1.5Y-2.3563
T3
X8.7063Y-3.2813
X9.1063Y-3.2813
X2.7063Y-4.0313
X3.1063Y-4.0313
X2.1438Y-1.7813
X2.5438Y-1.7813
X1.7688Y-1.0313
X2.1688Y-1.0313
X9.0813Y-2.5313
X9.4813Y-2.5313
X3.0813Y-2.5313
X3.4813Y-2.5313
X9.4563Y-4.0313
X9.8563Y-4.0313
X1.3938Y-2.5313
X1.7938Y-2.5313
X2.8938Y-4.0313
X3.2938Y-4.0313
X10.0188Y-1.0313
X10.4188Y-1.0313
X7.5813Y-2.5313
X7.9813Y-2.5313
X7.3938Y-1.7813
X7.7938Y-1.7813
X8.1438Y-1.7813
X8.5438Y-1.7813
X4.9563Y-3.2813
X5.3563Y-3.2813
X4.5813Y-2.5313
X4.9813Y-2.5313
X7.2063Y-3.2813
X7.6063Y-3.2813
X4.3938Y-1.7813
X4.7938Y-1.7813
X9.4563Y-3.2813
X9.8563Y-3.2813
X5.8938Y-1.7813
X6.2938Y-1.7813
X10.675Y-2.5313
X11.075Y-2.5313
X3.8313Y-2.5313
X4.2313Y-2.5313
X4.7688Y-1.0313
X5.1688Y-1.0313
X3.2688Y-1.0313
X3.6688Y-1.0313
X10.5813Y-1.7813
X10.9813Y-1.7813
X2.7063Y-3.2813
X3.1063Y-3.2813
X7.7688Y-1.0313
X8.1688Y-1.0313
X9.2688Y-4.0313
X9.6688Y-4.0313
X8.5188Y-1.0313
X8.9188Y-1.0313
X4.0188Y-1.0313
X4.4188Y-1.0313
X3.6438Y-1.7813
X4.0438Y-1.7813
X1.5813Y-3.2813
X1.9813Y-3.2813
X8.8938Y-1.7813
X9.2938Y-1.7813
X5.7063Y-3.2813
X6.1063Y-3.2813
X5.3313Y-2.5313
X5.7313Y-2.5313
X1.3Y-1.7813
X1.7Y-1.7813
X7.9563Y-3.2813
X8.3563Y-3.2813
X5.1438Y-1.7813
X5.5438Y-1.7813
X10.4875Y-3.2813
X10.8875Y-3.2813
X9.6438Y-1.7813
X10.0438Y-1.7813
X6.0813Y-4.0313
X6.4813Y-4.0313
X5.5188Y-1.0313
X5.9188Y-1.0313
X7.0188Y-1.0313
X7.4188Y-1.0313
X9.8313Y-2.5313
X10.2313Y-2.5313
X4.2063Y-3.2813
X4.6063Y-3.2813
X6.2688Y-1.0313
X6.6688Y-1.0313
X8.3313Y-2.5313
X8.7313Y-2.5313
X9.2688Y-1.0313
X9.6688Y-1.0313
X6.8313Y-2.5313
X7.2313Y-2.5313
X6.6438Y-1.7813
X7.0438Y-1.7813
X2.5188Y-1.0313
X2.9188Y-1.0313
X3.4563Y-3.2813
X3.8563Y-3.2813
X2.3313Y-2.5313
X2.7313Y-2.5313
X6.4563Y-3.2813
X6.8563Y-3.2813
X6.0813Y-2.5313
X6.4813Y-2.5313
X2.8938Y-1.7813
X3.2938Y-1.7813
X6.0813Y-4.0313
X6.4813Y-4.0313
T4
X1.225Y-1.6863
X1.225Y-2.6263
X1.3113Y-3.5563
X2.2513Y-3.5563
X3.6563Y-4.3063
X8.9063Y-4.3063
X4.0313Y-4.3063
X8.5313Y-4.3063
X11.15Y-1.6863
X11.15Y-2.6263
T5
X10.2188Y-1.0313
X7.7813Y-2.5313
X7.5938Y-1.7813
X8.3438Y-1.7813
X5.1563Y-3.2813
X4.7813Y-2.5313
X7.4063Y-3.2813
X4.5938Y-1.7813
X9.6563Y-3.2813
X6.0938Y-1.7813
X10.875Y-2.5313
X4.0313Y-2.5313
X4.9688Y-1.0313
X3.4688Y-1.0313
X10.7813Y-1.7813
X2.9063Y-3.2813
X7.9688Y-1.0313
X9.4688Y-4.0313
X8.7188Y-1.0313
X4.2188Y-1.0313
X3.8438Y-1.7813
X1.5Y-2.1563
X1.825Y-1.6863
X1.825Y-2.6263
X1.3113Y-2.9563
X1.7813Y-3.2813
X2.2513Y-2.9563
X9.0938Y-1.7813
X5.9063Y-3.2813
X5.5313Y-2.5313
X1.5Y-1.7813
X8.1563Y-3.2813
X5.3438Y-1.7813
X10.6875Y-3.2813
X9.8438Y-1.7813
X3.6563Y-3.7063
X6.2813Y-4.0313
X8.9063Y-3.7063
X5.7188Y-1.0313
X7.2188Y-1.0313
X10.0313Y-2.5313
X4.4063Y-3.2813
X6.4688Y-1.0313
X8.5313Y-2.5313
X9.4688Y-1.0313
X7.0313Y-2.5313
X6.8438Y-1.7813
X2.7188Y-1.0313
X3.6563Y-3.2813
X2.5313Y-2.5313
X6.6563Y-3.2813
X6.2813Y-2.5313
X3.0938Y-1.7813
X4.0313Y-3.7063
X6.2813Y-4.0313
X8.5313Y-3.7063
X8.9063Y-3.2813
X2.9063Y-4.0313
X2.3438Y-1.7813
X10.55Y-1.6863
X10.55Y-2.6263
X10.875Y-2.1563
X1.9688Y-1.0313
X9.2813Y-2.5313
X3.2813Y-2.5313
X9.6563Y-4.0313
X1.5938Y-2.5313
X3.0938Y-4.0313
T0
M30
