G04 #@! TF.GenerationSoftware,KiCad,Pcbnew,(5.1.4)-1*
G04 #@! TF.CreationDate,2021-02-18T16:48:32-08:00*
G04 #@! TF.ProjectId,IBM029Punch,49424d30-3239-4507-956e-63682e6b6963,rev?*
G04 #@! TF.SameCoordinates,Original*
G04 #@! TF.FileFunction,Paste,Bot*
G04 #@! TF.FilePolarity,Positive*
%FSLAX46Y46*%
G04 Gerber Fmt 4.6, Leading zero omitted, Abs format (unit mm)*
G04 Created by KiCad (PCBNEW (5.1.4)-1) date 2021-02-18 16:48:32*
%MOMM*%
%LPD*%
G04 APERTURE LIST*
%ADD10C,1.200000*%
%ADD11C,0.100000*%
%ADD12R,0.600000X1.450000*%
%ADD13R,0.300000X1.450000*%
%ADD14C,0.550000*%
%ADD15R,0.700000X1.000000*%
%ADD16R,0.700000X0.600000*%
%ADD17R,1.100000X1.800000*%
%ADD18C,0.975000*%
%ADD19C,1.250000*%
%ADD20R,1.200000X0.900000*%
G04 APERTURE END LIST*
D10*
X243789457Y-71143905D03*
D11*
G36*
X243860168Y-70224666D02*
G01*
X244708696Y-71073194D01*
X243718746Y-72063144D01*
X242870218Y-71214616D01*
X243860168Y-70224666D01*
X243860168Y-70224666D01*
G37*
D10*
X242233822Y-72699540D03*
D11*
G36*
X242304533Y-71780301D02*
G01*
X243153061Y-72628829D01*
X242163111Y-73618779D01*
X241314583Y-72770251D01*
X242304533Y-71780301D01*
X242304533Y-71780301D01*
G37*
D10*
X243435903Y-73901621D03*
D11*
G36*
X243506614Y-72982382D02*
G01*
X244355142Y-73830910D01*
X243365192Y-74820860D01*
X242516664Y-73972332D01*
X243506614Y-72982382D01*
X243506614Y-72982382D01*
G37*
D10*
X244991538Y-72345986D03*
D11*
G36*
X245062249Y-71426747D02*
G01*
X245910777Y-72275275D01*
X244920827Y-73265225D01*
X244072299Y-72416697D01*
X245062249Y-71426747D01*
X245062249Y-71426747D01*
G37*
D12*
X279451160Y-33888860D03*
X273001160Y-33888860D03*
X278676160Y-33888860D03*
X273776160Y-33888860D03*
D13*
X274476160Y-33888860D03*
X277976160Y-33888860D03*
X274976160Y-33888860D03*
X277476160Y-33888860D03*
X275476160Y-33888860D03*
X276976160Y-33888860D03*
X276476160Y-33888860D03*
X275976160Y-33888860D03*
D14*
X259377034Y-83998871D03*
D11*
G36*
X258652250Y-83662995D02*
G01*
X259041158Y-83274087D01*
X260101818Y-84334747D01*
X259712910Y-84723655D01*
X258652250Y-83662995D01*
X258652250Y-83662995D01*
G37*
D14*
X259942719Y-83433185D03*
D11*
G36*
X259217935Y-83097309D02*
G01*
X259606843Y-82708401D01*
X260667503Y-83769061D01*
X260278595Y-84157969D01*
X259217935Y-83097309D01*
X259217935Y-83097309D01*
G37*
D14*
X260508404Y-82867500D03*
D11*
G36*
X259783620Y-82531624D02*
G01*
X260172528Y-82142716D01*
X261233188Y-83203376D01*
X260844280Y-83592284D01*
X259783620Y-82531624D01*
X259783620Y-82531624D01*
G37*
D14*
X261074090Y-82301815D03*
D11*
G36*
X260349306Y-81965939D02*
G01*
X260738214Y-81577031D01*
X261798874Y-82637691D01*
X261409966Y-83026599D01*
X260349306Y-81965939D01*
X260349306Y-81965939D01*
G37*
D14*
X261639775Y-81736129D03*
D11*
G36*
X260914991Y-81400253D02*
G01*
X261303899Y-81011345D01*
X262364559Y-82072005D01*
X261975651Y-82460913D01*
X260914991Y-81400253D01*
X260914991Y-81400253D01*
G37*
D14*
X262205461Y-81170444D03*
D11*
G36*
X261480677Y-80834568D02*
G01*
X261869585Y-80445660D01*
X262930245Y-81506320D01*
X262541337Y-81895228D01*
X261480677Y-80834568D01*
X261480677Y-80834568D01*
G37*
D14*
X262771146Y-80604758D03*
D11*
G36*
X262046362Y-80268882D02*
G01*
X262435270Y-79879974D01*
X263495930Y-80940634D01*
X263107022Y-81329542D01*
X262046362Y-80268882D01*
X262046362Y-80268882D01*
G37*
D14*
X263336832Y-80039073D03*
D11*
G36*
X262612048Y-79703197D02*
G01*
X263000956Y-79314289D01*
X264061616Y-80374949D01*
X263672708Y-80763857D01*
X262612048Y-79703197D01*
X262612048Y-79703197D01*
G37*
D14*
X263902517Y-79473387D03*
D11*
G36*
X263177733Y-79137511D02*
G01*
X263566641Y-78748603D01*
X264627301Y-79809263D01*
X264238393Y-80198171D01*
X263177733Y-79137511D01*
X263177733Y-79137511D01*
G37*
D14*
X264468202Y-78907702D03*
D11*
G36*
X263743418Y-78571826D02*
G01*
X264132326Y-78182918D01*
X265192986Y-79243578D01*
X264804078Y-79632486D01*
X263743418Y-78571826D01*
X263743418Y-78571826D01*
G37*
D14*
X265033888Y-78342017D03*
D11*
G36*
X264309104Y-78006141D02*
G01*
X264698012Y-77617233D01*
X265758672Y-78677893D01*
X265369764Y-79066801D01*
X264309104Y-78006141D01*
X264309104Y-78006141D01*
G37*
D14*
X265033888Y-75937853D03*
D11*
G36*
X264698012Y-76662637D02*
G01*
X264309104Y-76273729D01*
X265369764Y-75213069D01*
X265758672Y-75601977D01*
X264698012Y-76662637D01*
X264698012Y-76662637D01*
G37*
D14*
X264468202Y-75372168D03*
D11*
G36*
X264132326Y-76096952D02*
G01*
X263743418Y-75708044D01*
X264804078Y-74647384D01*
X265192986Y-75036292D01*
X264132326Y-76096952D01*
X264132326Y-76096952D01*
G37*
D14*
X263902517Y-74806483D03*
D11*
G36*
X263566641Y-75531267D02*
G01*
X263177733Y-75142359D01*
X264238393Y-74081699D01*
X264627301Y-74470607D01*
X263566641Y-75531267D01*
X263566641Y-75531267D01*
G37*
D14*
X263336832Y-74240797D03*
D11*
G36*
X263000956Y-74965581D02*
G01*
X262612048Y-74576673D01*
X263672708Y-73516013D01*
X264061616Y-73904921D01*
X263000956Y-74965581D01*
X263000956Y-74965581D01*
G37*
D14*
X262771146Y-73675112D03*
D11*
G36*
X262435270Y-74399896D02*
G01*
X262046362Y-74010988D01*
X263107022Y-72950328D01*
X263495930Y-73339236D01*
X262435270Y-74399896D01*
X262435270Y-74399896D01*
G37*
D14*
X262205461Y-73109426D03*
D11*
G36*
X261869585Y-73834210D02*
G01*
X261480677Y-73445302D01*
X262541337Y-72384642D01*
X262930245Y-72773550D01*
X261869585Y-73834210D01*
X261869585Y-73834210D01*
G37*
D14*
X261639775Y-72543741D03*
D11*
G36*
X261303899Y-73268525D02*
G01*
X260914991Y-72879617D01*
X261975651Y-71818957D01*
X262364559Y-72207865D01*
X261303899Y-73268525D01*
X261303899Y-73268525D01*
G37*
D14*
X261074090Y-71978055D03*
D11*
G36*
X260738214Y-72702839D02*
G01*
X260349306Y-72313931D01*
X261409966Y-71253271D01*
X261798874Y-71642179D01*
X260738214Y-72702839D01*
X260738214Y-72702839D01*
G37*
D14*
X260508404Y-71412370D03*
D11*
G36*
X260172528Y-72137154D02*
G01*
X259783620Y-71748246D01*
X260844280Y-70687586D01*
X261233188Y-71076494D01*
X260172528Y-72137154D01*
X260172528Y-72137154D01*
G37*
D14*
X259942719Y-70846685D03*
D11*
G36*
X259606843Y-71571469D02*
G01*
X259217935Y-71182561D01*
X260278595Y-70121901D01*
X260667503Y-70510809D01*
X259606843Y-71571469D01*
X259606843Y-71571469D01*
G37*
D14*
X259377034Y-70280999D03*
D11*
G36*
X259041158Y-71005783D02*
G01*
X258652250Y-70616875D01*
X259712910Y-69556215D01*
X260101818Y-69945123D01*
X259041158Y-71005783D01*
X259041158Y-71005783D01*
G37*
D14*
X256972870Y-70280999D03*
D11*
G36*
X256248086Y-69945123D02*
G01*
X256636994Y-69556215D01*
X257697654Y-70616875D01*
X257308746Y-71005783D01*
X256248086Y-69945123D01*
X256248086Y-69945123D01*
G37*
D14*
X256407185Y-70846685D03*
D11*
G36*
X255682401Y-70510809D02*
G01*
X256071309Y-70121901D01*
X257131969Y-71182561D01*
X256743061Y-71571469D01*
X255682401Y-70510809D01*
X255682401Y-70510809D01*
G37*
D14*
X255841500Y-71412370D03*
D11*
G36*
X255116716Y-71076494D02*
G01*
X255505624Y-70687586D01*
X256566284Y-71748246D01*
X256177376Y-72137154D01*
X255116716Y-71076494D01*
X255116716Y-71076494D01*
G37*
D14*
X255275814Y-71978055D03*
D11*
G36*
X254551030Y-71642179D02*
G01*
X254939938Y-71253271D01*
X256000598Y-72313931D01*
X255611690Y-72702839D01*
X254551030Y-71642179D01*
X254551030Y-71642179D01*
G37*
D14*
X254710129Y-72543741D03*
D11*
G36*
X253985345Y-72207865D02*
G01*
X254374253Y-71818957D01*
X255434913Y-72879617D01*
X255046005Y-73268525D01*
X253985345Y-72207865D01*
X253985345Y-72207865D01*
G37*
D14*
X254144443Y-73109426D03*
D11*
G36*
X253419659Y-72773550D02*
G01*
X253808567Y-72384642D01*
X254869227Y-73445302D01*
X254480319Y-73834210D01*
X253419659Y-72773550D01*
X253419659Y-72773550D01*
G37*
D14*
X253578758Y-73675112D03*
D11*
G36*
X252853974Y-73339236D02*
G01*
X253242882Y-72950328D01*
X254303542Y-74010988D01*
X253914634Y-74399896D01*
X252853974Y-73339236D01*
X252853974Y-73339236D01*
G37*
D14*
X253013072Y-74240797D03*
D11*
G36*
X252288288Y-73904921D02*
G01*
X252677196Y-73516013D01*
X253737856Y-74576673D01*
X253348948Y-74965581D01*
X252288288Y-73904921D01*
X252288288Y-73904921D01*
G37*
D14*
X252447387Y-74806483D03*
D11*
G36*
X251722603Y-74470607D02*
G01*
X252111511Y-74081699D01*
X253172171Y-75142359D01*
X252783263Y-75531267D01*
X251722603Y-74470607D01*
X251722603Y-74470607D01*
G37*
D14*
X251881702Y-75372168D03*
D11*
G36*
X251156918Y-75036292D02*
G01*
X251545826Y-74647384D01*
X252606486Y-75708044D01*
X252217578Y-76096952D01*
X251156918Y-75036292D01*
X251156918Y-75036292D01*
G37*
D14*
X251316016Y-75937853D03*
D11*
G36*
X250591232Y-75601977D02*
G01*
X250980140Y-75213069D01*
X252040800Y-76273729D01*
X251651892Y-76662637D01*
X250591232Y-75601977D01*
X250591232Y-75601977D01*
G37*
D14*
X251316016Y-78342017D03*
D11*
G36*
X250980140Y-79066801D02*
G01*
X250591232Y-78677893D01*
X251651892Y-77617233D01*
X252040800Y-78006141D01*
X250980140Y-79066801D01*
X250980140Y-79066801D01*
G37*
D14*
X251881702Y-78907702D03*
D11*
G36*
X251545826Y-79632486D02*
G01*
X251156918Y-79243578D01*
X252217578Y-78182918D01*
X252606486Y-78571826D01*
X251545826Y-79632486D01*
X251545826Y-79632486D01*
G37*
D14*
X252447387Y-79473387D03*
D11*
G36*
X252111511Y-80198171D02*
G01*
X251722603Y-79809263D01*
X252783263Y-78748603D01*
X253172171Y-79137511D01*
X252111511Y-80198171D01*
X252111511Y-80198171D01*
G37*
D14*
X253013072Y-80039073D03*
D11*
G36*
X252677196Y-80763857D02*
G01*
X252288288Y-80374949D01*
X253348948Y-79314289D01*
X253737856Y-79703197D01*
X252677196Y-80763857D01*
X252677196Y-80763857D01*
G37*
D14*
X253578758Y-80604758D03*
D11*
G36*
X253242882Y-81329542D02*
G01*
X252853974Y-80940634D01*
X253914634Y-79879974D01*
X254303542Y-80268882D01*
X253242882Y-81329542D01*
X253242882Y-81329542D01*
G37*
D14*
X254144443Y-81170444D03*
D11*
G36*
X253808567Y-81895228D02*
G01*
X253419659Y-81506320D01*
X254480319Y-80445660D01*
X254869227Y-80834568D01*
X253808567Y-81895228D01*
X253808567Y-81895228D01*
G37*
D14*
X254710129Y-81736129D03*
D11*
G36*
X254374253Y-82460913D02*
G01*
X253985345Y-82072005D01*
X255046005Y-81011345D01*
X255434913Y-81400253D01*
X254374253Y-82460913D01*
X254374253Y-82460913D01*
G37*
D14*
X255275814Y-82301815D03*
D11*
G36*
X254939938Y-83026599D02*
G01*
X254551030Y-82637691D01*
X255611690Y-81577031D01*
X256000598Y-81965939D01*
X254939938Y-83026599D01*
X254939938Y-83026599D01*
G37*
D14*
X255841500Y-82867500D03*
D11*
G36*
X255505624Y-83592284D02*
G01*
X255116716Y-83203376D01*
X256177376Y-82142716D01*
X256566284Y-82531624D01*
X255505624Y-83592284D01*
X255505624Y-83592284D01*
G37*
D14*
X256407185Y-83433185D03*
D11*
G36*
X256071309Y-84157969D02*
G01*
X255682401Y-83769061D01*
X256743061Y-82708401D01*
X257131969Y-83097309D01*
X256071309Y-84157969D01*
X256071309Y-84157969D01*
G37*
D14*
X256972870Y-83998871D03*
D11*
G36*
X256636994Y-84723655D02*
G01*
X256248086Y-84334747D01*
X257308746Y-83274087D01*
X257697654Y-83662995D01*
X256636994Y-84723655D01*
X256636994Y-84723655D01*
G37*
D15*
X262591800Y-48542600D03*
D16*
X264591800Y-48742600D03*
X262591800Y-46842600D03*
X264591800Y-46842600D03*
D17*
X50537720Y-62631500D03*
X54237720Y-56431500D03*
X54237720Y-62631500D03*
X50537720Y-56431500D03*
D11*
G36*
X266116432Y-73582849D02*
G01*
X266140093Y-73586359D01*
X266163297Y-73592171D01*
X266185819Y-73600229D01*
X266207443Y-73610457D01*
X266227960Y-73622754D01*
X266247173Y-73637004D01*
X266264897Y-73653068D01*
X266910132Y-74298303D01*
X266926196Y-74316027D01*
X266940446Y-74335240D01*
X266952743Y-74355757D01*
X266962971Y-74377381D01*
X266971029Y-74399903D01*
X266976841Y-74423107D01*
X266980351Y-74446768D01*
X266981525Y-74470660D01*
X266980351Y-74494552D01*
X266976841Y-74518213D01*
X266971029Y-74541417D01*
X266962971Y-74563939D01*
X266952743Y-74585563D01*
X266940446Y-74606080D01*
X266926196Y-74625293D01*
X266910132Y-74643017D01*
X266565417Y-74987732D01*
X266547693Y-75003796D01*
X266528480Y-75018046D01*
X266507963Y-75030343D01*
X266486339Y-75040571D01*
X266463817Y-75048629D01*
X266440613Y-75054441D01*
X266416952Y-75057951D01*
X266393060Y-75059125D01*
X266369168Y-75057951D01*
X266345507Y-75054441D01*
X266322303Y-75048629D01*
X266299781Y-75040571D01*
X266278157Y-75030343D01*
X266257640Y-75018046D01*
X266238427Y-75003796D01*
X266220703Y-74987732D01*
X265575468Y-74342497D01*
X265559404Y-74324773D01*
X265545154Y-74305560D01*
X265532857Y-74285043D01*
X265522629Y-74263419D01*
X265514571Y-74240897D01*
X265508759Y-74217693D01*
X265505249Y-74194032D01*
X265504075Y-74170140D01*
X265505249Y-74146248D01*
X265508759Y-74122587D01*
X265514571Y-74099383D01*
X265522629Y-74076861D01*
X265532857Y-74055237D01*
X265545154Y-74034720D01*
X265559404Y-74015507D01*
X265575468Y-73997783D01*
X265920183Y-73653068D01*
X265937907Y-73637004D01*
X265957120Y-73622754D01*
X265977637Y-73610457D01*
X265999261Y-73600229D01*
X266021783Y-73592171D01*
X266044987Y-73586359D01*
X266068648Y-73582849D01*
X266092540Y-73581675D01*
X266116432Y-73582849D01*
X266116432Y-73582849D01*
G37*
D18*
X266242800Y-74320400D03*
D11*
G36*
X267442258Y-72257023D02*
G01*
X267465919Y-72260533D01*
X267489123Y-72266345D01*
X267511645Y-72274403D01*
X267533269Y-72284631D01*
X267553786Y-72296928D01*
X267572999Y-72311178D01*
X267590723Y-72327242D01*
X268235958Y-72972477D01*
X268252022Y-72990201D01*
X268266272Y-73009414D01*
X268278569Y-73029931D01*
X268288797Y-73051555D01*
X268296855Y-73074077D01*
X268302667Y-73097281D01*
X268306177Y-73120942D01*
X268307351Y-73144834D01*
X268306177Y-73168726D01*
X268302667Y-73192387D01*
X268296855Y-73215591D01*
X268288797Y-73238113D01*
X268278569Y-73259737D01*
X268266272Y-73280254D01*
X268252022Y-73299467D01*
X268235958Y-73317191D01*
X267891243Y-73661906D01*
X267873519Y-73677970D01*
X267854306Y-73692220D01*
X267833789Y-73704517D01*
X267812165Y-73714745D01*
X267789643Y-73722803D01*
X267766439Y-73728615D01*
X267742778Y-73732125D01*
X267718886Y-73733299D01*
X267694994Y-73732125D01*
X267671333Y-73728615D01*
X267648129Y-73722803D01*
X267625607Y-73714745D01*
X267603983Y-73704517D01*
X267583466Y-73692220D01*
X267564253Y-73677970D01*
X267546529Y-73661906D01*
X266901294Y-73016671D01*
X266885230Y-72998947D01*
X266870980Y-72979734D01*
X266858683Y-72959217D01*
X266848455Y-72937593D01*
X266840397Y-72915071D01*
X266834585Y-72891867D01*
X266831075Y-72868206D01*
X266829901Y-72844314D01*
X266831075Y-72820422D01*
X266834585Y-72796761D01*
X266840397Y-72773557D01*
X266848455Y-72751035D01*
X266858683Y-72729411D01*
X266870980Y-72708894D01*
X266885230Y-72689681D01*
X266901294Y-72671957D01*
X267246009Y-72327242D01*
X267263733Y-72311178D01*
X267282946Y-72296928D01*
X267303463Y-72284631D01*
X267325087Y-72274403D01*
X267347609Y-72266345D01*
X267370813Y-72260533D01*
X267394474Y-72257023D01*
X267418366Y-72255849D01*
X267442258Y-72257023D01*
X267442258Y-72257023D01*
G37*
D18*
X267568626Y-72994574D03*
D11*
G36*
X260437542Y-46610944D02*
G01*
X260461203Y-46614454D01*
X260484407Y-46620266D01*
X260506929Y-46628324D01*
X260528553Y-46638552D01*
X260549070Y-46650849D01*
X260568283Y-46665099D01*
X260586007Y-46681163D01*
X260602071Y-46698887D01*
X260616321Y-46718100D01*
X260628618Y-46738617D01*
X260638846Y-46760241D01*
X260646904Y-46782763D01*
X260652716Y-46805967D01*
X260656226Y-46829628D01*
X260657400Y-46853520D01*
X260657400Y-47341020D01*
X260656226Y-47364912D01*
X260652716Y-47388573D01*
X260646904Y-47411777D01*
X260638846Y-47434299D01*
X260628618Y-47455923D01*
X260616321Y-47476440D01*
X260602071Y-47495653D01*
X260586007Y-47513377D01*
X260568283Y-47529441D01*
X260549070Y-47543691D01*
X260528553Y-47555988D01*
X260506929Y-47566216D01*
X260484407Y-47574274D01*
X260461203Y-47580086D01*
X260437542Y-47583596D01*
X260413650Y-47584770D01*
X259501150Y-47584770D01*
X259477258Y-47583596D01*
X259453597Y-47580086D01*
X259430393Y-47574274D01*
X259407871Y-47566216D01*
X259386247Y-47555988D01*
X259365730Y-47543691D01*
X259346517Y-47529441D01*
X259328793Y-47513377D01*
X259312729Y-47495653D01*
X259298479Y-47476440D01*
X259286182Y-47455923D01*
X259275954Y-47434299D01*
X259267896Y-47411777D01*
X259262084Y-47388573D01*
X259258574Y-47364912D01*
X259257400Y-47341020D01*
X259257400Y-46853520D01*
X259258574Y-46829628D01*
X259262084Y-46805967D01*
X259267896Y-46782763D01*
X259275954Y-46760241D01*
X259286182Y-46738617D01*
X259298479Y-46718100D01*
X259312729Y-46698887D01*
X259328793Y-46681163D01*
X259346517Y-46665099D01*
X259365730Y-46650849D01*
X259386247Y-46638552D01*
X259407871Y-46628324D01*
X259430393Y-46620266D01*
X259453597Y-46614454D01*
X259477258Y-46610944D01*
X259501150Y-46609770D01*
X260413650Y-46609770D01*
X260437542Y-46610944D01*
X260437542Y-46610944D01*
G37*
D18*
X259957400Y-47097270D03*
D11*
G36*
X260437542Y-48485944D02*
G01*
X260461203Y-48489454D01*
X260484407Y-48495266D01*
X260506929Y-48503324D01*
X260528553Y-48513552D01*
X260549070Y-48525849D01*
X260568283Y-48540099D01*
X260586007Y-48556163D01*
X260602071Y-48573887D01*
X260616321Y-48593100D01*
X260628618Y-48613617D01*
X260638846Y-48635241D01*
X260646904Y-48657763D01*
X260652716Y-48680967D01*
X260656226Y-48704628D01*
X260657400Y-48728520D01*
X260657400Y-49216020D01*
X260656226Y-49239912D01*
X260652716Y-49263573D01*
X260646904Y-49286777D01*
X260638846Y-49309299D01*
X260628618Y-49330923D01*
X260616321Y-49351440D01*
X260602071Y-49370653D01*
X260586007Y-49388377D01*
X260568283Y-49404441D01*
X260549070Y-49418691D01*
X260528553Y-49430988D01*
X260506929Y-49441216D01*
X260484407Y-49449274D01*
X260461203Y-49455086D01*
X260437542Y-49458596D01*
X260413650Y-49459770D01*
X259501150Y-49459770D01*
X259477258Y-49458596D01*
X259453597Y-49455086D01*
X259430393Y-49449274D01*
X259407871Y-49441216D01*
X259386247Y-49430988D01*
X259365730Y-49418691D01*
X259346517Y-49404441D01*
X259328793Y-49388377D01*
X259312729Y-49370653D01*
X259298479Y-49351440D01*
X259286182Y-49330923D01*
X259275954Y-49309299D01*
X259267896Y-49286777D01*
X259262084Y-49263573D01*
X259258574Y-49239912D01*
X259257400Y-49216020D01*
X259257400Y-48728520D01*
X259258574Y-48704628D01*
X259262084Y-48680967D01*
X259267896Y-48657763D01*
X259275954Y-48635241D01*
X259286182Y-48613617D01*
X259298479Y-48593100D01*
X259312729Y-48573887D01*
X259328793Y-48556163D01*
X259346517Y-48540099D01*
X259365730Y-48525849D01*
X259386247Y-48513552D01*
X259407871Y-48503324D01*
X259430393Y-48495266D01*
X259453597Y-48489454D01*
X259477258Y-48485944D01*
X259501150Y-48484770D01*
X260413650Y-48484770D01*
X260437542Y-48485944D01*
X260437542Y-48485944D01*
G37*
D18*
X259957400Y-48972270D03*
D11*
G36*
X258056282Y-46610944D02*
G01*
X258079943Y-46614454D01*
X258103147Y-46620266D01*
X258125669Y-46628324D01*
X258147293Y-46638552D01*
X258167810Y-46650849D01*
X258187023Y-46665099D01*
X258204747Y-46681163D01*
X258220811Y-46698887D01*
X258235061Y-46718100D01*
X258247358Y-46738617D01*
X258257586Y-46760241D01*
X258265644Y-46782763D01*
X258271456Y-46805967D01*
X258274966Y-46829628D01*
X258276140Y-46853520D01*
X258276140Y-47341020D01*
X258274966Y-47364912D01*
X258271456Y-47388573D01*
X258265644Y-47411777D01*
X258257586Y-47434299D01*
X258247358Y-47455923D01*
X258235061Y-47476440D01*
X258220811Y-47495653D01*
X258204747Y-47513377D01*
X258187023Y-47529441D01*
X258167810Y-47543691D01*
X258147293Y-47555988D01*
X258125669Y-47566216D01*
X258103147Y-47574274D01*
X258079943Y-47580086D01*
X258056282Y-47583596D01*
X258032390Y-47584770D01*
X257119890Y-47584770D01*
X257095998Y-47583596D01*
X257072337Y-47580086D01*
X257049133Y-47574274D01*
X257026611Y-47566216D01*
X257004987Y-47555988D01*
X256984470Y-47543691D01*
X256965257Y-47529441D01*
X256947533Y-47513377D01*
X256931469Y-47495653D01*
X256917219Y-47476440D01*
X256904922Y-47455923D01*
X256894694Y-47434299D01*
X256886636Y-47411777D01*
X256880824Y-47388573D01*
X256877314Y-47364912D01*
X256876140Y-47341020D01*
X256876140Y-46853520D01*
X256877314Y-46829628D01*
X256880824Y-46805967D01*
X256886636Y-46782763D01*
X256894694Y-46760241D01*
X256904922Y-46738617D01*
X256917219Y-46718100D01*
X256931469Y-46698887D01*
X256947533Y-46681163D01*
X256965257Y-46665099D01*
X256984470Y-46650849D01*
X257004987Y-46638552D01*
X257026611Y-46628324D01*
X257049133Y-46620266D01*
X257072337Y-46614454D01*
X257095998Y-46610944D01*
X257119890Y-46609770D01*
X258032390Y-46609770D01*
X258056282Y-46610944D01*
X258056282Y-46610944D01*
G37*
D18*
X257576140Y-47097270D03*
D11*
G36*
X258056282Y-48485944D02*
G01*
X258079943Y-48489454D01*
X258103147Y-48495266D01*
X258125669Y-48503324D01*
X258147293Y-48513552D01*
X258167810Y-48525849D01*
X258187023Y-48540099D01*
X258204747Y-48556163D01*
X258220811Y-48573887D01*
X258235061Y-48593100D01*
X258247358Y-48613617D01*
X258257586Y-48635241D01*
X258265644Y-48657763D01*
X258271456Y-48680967D01*
X258274966Y-48704628D01*
X258276140Y-48728520D01*
X258276140Y-49216020D01*
X258274966Y-49239912D01*
X258271456Y-49263573D01*
X258265644Y-49286777D01*
X258257586Y-49309299D01*
X258247358Y-49330923D01*
X258235061Y-49351440D01*
X258220811Y-49370653D01*
X258204747Y-49388377D01*
X258187023Y-49404441D01*
X258167810Y-49418691D01*
X258147293Y-49430988D01*
X258125669Y-49441216D01*
X258103147Y-49449274D01*
X258079943Y-49455086D01*
X258056282Y-49458596D01*
X258032390Y-49459770D01*
X257119890Y-49459770D01*
X257095998Y-49458596D01*
X257072337Y-49455086D01*
X257049133Y-49449274D01*
X257026611Y-49441216D01*
X257004987Y-49430988D01*
X256984470Y-49418691D01*
X256965257Y-49404441D01*
X256947533Y-49388377D01*
X256931469Y-49370653D01*
X256917219Y-49351440D01*
X256904922Y-49330923D01*
X256894694Y-49309299D01*
X256886636Y-49286777D01*
X256880824Y-49263573D01*
X256877314Y-49239912D01*
X256876140Y-49216020D01*
X256876140Y-48728520D01*
X256877314Y-48704628D01*
X256880824Y-48680967D01*
X256886636Y-48657763D01*
X256894694Y-48635241D01*
X256904922Y-48613617D01*
X256917219Y-48593100D01*
X256931469Y-48573887D01*
X256947533Y-48556163D01*
X256965257Y-48540099D01*
X256984470Y-48525849D01*
X257004987Y-48513552D01*
X257026611Y-48503324D01*
X257049133Y-48495266D01*
X257072337Y-48489454D01*
X257095998Y-48485944D01*
X257119890Y-48484770D01*
X258032390Y-48484770D01*
X258056282Y-48485944D01*
X258056282Y-48485944D01*
G37*
D18*
X257576140Y-48972270D03*
D11*
G36*
X54783492Y-64785824D02*
G01*
X54807153Y-64789334D01*
X54830357Y-64795146D01*
X54852879Y-64803204D01*
X54874503Y-64813432D01*
X54895020Y-64825729D01*
X54914233Y-64839979D01*
X54931957Y-64856043D01*
X54948021Y-64873767D01*
X54962271Y-64892980D01*
X54974568Y-64913497D01*
X54984796Y-64935121D01*
X54992854Y-64957643D01*
X54998666Y-64980847D01*
X55002176Y-65004508D01*
X55003350Y-65028400D01*
X55003350Y-65940900D01*
X55002176Y-65964792D01*
X54998666Y-65988453D01*
X54992854Y-66011657D01*
X54984796Y-66034179D01*
X54974568Y-66055803D01*
X54962271Y-66076320D01*
X54948021Y-66095533D01*
X54931957Y-66113257D01*
X54914233Y-66129321D01*
X54895020Y-66143571D01*
X54874503Y-66155868D01*
X54852879Y-66166096D01*
X54830357Y-66174154D01*
X54807153Y-66179966D01*
X54783492Y-66183476D01*
X54759600Y-66184650D01*
X54272100Y-66184650D01*
X54248208Y-66183476D01*
X54224547Y-66179966D01*
X54201343Y-66174154D01*
X54178821Y-66166096D01*
X54157197Y-66155868D01*
X54136680Y-66143571D01*
X54117467Y-66129321D01*
X54099743Y-66113257D01*
X54083679Y-66095533D01*
X54069429Y-66076320D01*
X54057132Y-66055803D01*
X54046904Y-66034179D01*
X54038846Y-66011657D01*
X54033034Y-65988453D01*
X54029524Y-65964792D01*
X54028350Y-65940900D01*
X54028350Y-65028400D01*
X54029524Y-65004508D01*
X54033034Y-64980847D01*
X54038846Y-64957643D01*
X54046904Y-64935121D01*
X54057132Y-64913497D01*
X54069429Y-64892980D01*
X54083679Y-64873767D01*
X54099743Y-64856043D01*
X54117467Y-64839979D01*
X54136680Y-64825729D01*
X54157197Y-64813432D01*
X54178821Y-64803204D01*
X54201343Y-64795146D01*
X54224547Y-64789334D01*
X54248208Y-64785824D01*
X54272100Y-64784650D01*
X54759600Y-64784650D01*
X54783492Y-64785824D01*
X54783492Y-64785824D01*
G37*
D18*
X54515850Y-65484650D03*
D11*
G36*
X52908492Y-64785824D02*
G01*
X52932153Y-64789334D01*
X52955357Y-64795146D01*
X52977879Y-64803204D01*
X52999503Y-64813432D01*
X53020020Y-64825729D01*
X53039233Y-64839979D01*
X53056957Y-64856043D01*
X53073021Y-64873767D01*
X53087271Y-64892980D01*
X53099568Y-64913497D01*
X53109796Y-64935121D01*
X53117854Y-64957643D01*
X53123666Y-64980847D01*
X53127176Y-65004508D01*
X53128350Y-65028400D01*
X53128350Y-65940900D01*
X53127176Y-65964792D01*
X53123666Y-65988453D01*
X53117854Y-66011657D01*
X53109796Y-66034179D01*
X53099568Y-66055803D01*
X53087271Y-66076320D01*
X53073021Y-66095533D01*
X53056957Y-66113257D01*
X53039233Y-66129321D01*
X53020020Y-66143571D01*
X52999503Y-66155868D01*
X52977879Y-66166096D01*
X52955357Y-66174154D01*
X52932153Y-66179966D01*
X52908492Y-66183476D01*
X52884600Y-66184650D01*
X52397100Y-66184650D01*
X52373208Y-66183476D01*
X52349547Y-66179966D01*
X52326343Y-66174154D01*
X52303821Y-66166096D01*
X52282197Y-66155868D01*
X52261680Y-66143571D01*
X52242467Y-66129321D01*
X52224743Y-66113257D01*
X52208679Y-66095533D01*
X52194429Y-66076320D01*
X52182132Y-66055803D01*
X52171904Y-66034179D01*
X52163846Y-66011657D01*
X52158034Y-65988453D01*
X52154524Y-65964792D01*
X52153350Y-65940900D01*
X52153350Y-65028400D01*
X52154524Y-65004508D01*
X52158034Y-64980847D01*
X52163846Y-64957643D01*
X52171904Y-64935121D01*
X52182132Y-64913497D01*
X52194429Y-64892980D01*
X52208679Y-64873767D01*
X52224743Y-64856043D01*
X52242467Y-64839979D01*
X52261680Y-64825729D01*
X52282197Y-64813432D01*
X52303821Y-64803204D01*
X52326343Y-64795146D01*
X52349547Y-64789334D01*
X52373208Y-64785824D01*
X52397100Y-64784650D01*
X52884600Y-64784650D01*
X52908492Y-64785824D01*
X52908492Y-64785824D01*
G37*
D18*
X52640850Y-65484650D03*
D11*
G36*
X260037482Y-39310724D02*
G01*
X260061143Y-39314234D01*
X260084347Y-39320046D01*
X260106869Y-39328104D01*
X260128493Y-39338332D01*
X260149010Y-39350629D01*
X260168223Y-39364879D01*
X260185947Y-39380943D01*
X260202011Y-39398667D01*
X260216261Y-39417880D01*
X260228558Y-39438397D01*
X260238786Y-39460021D01*
X260246844Y-39482543D01*
X260252656Y-39505747D01*
X260256166Y-39529408D01*
X260257340Y-39553300D01*
X260257340Y-40040800D01*
X260256166Y-40064692D01*
X260252656Y-40088353D01*
X260246844Y-40111557D01*
X260238786Y-40134079D01*
X260228558Y-40155703D01*
X260216261Y-40176220D01*
X260202011Y-40195433D01*
X260185947Y-40213157D01*
X260168223Y-40229221D01*
X260149010Y-40243471D01*
X260128493Y-40255768D01*
X260106869Y-40265996D01*
X260084347Y-40274054D01*
X260061143Y-40279866D01*
X260037482Y-40283376D01*
X260013590Y-40284550D01*
X259101090Y-40284550D01*
X259077198Y-40283376D01*
X259053537Y-40279866D01*
X259030333Y-40274054D01*
X259007811Y-40265996D01*
X258986187Y-40255768D01*
X258965670Y-40243471D01*
X258946457Y-40229221D01*
X258928733Y-40213157D01*
X258912669Y-40195433D01*
X258898419Y-40176220D01*
X258886122Y-40155703D01*
X258875894Y-40134079D01*
X258867836Y-40111557D01*
X258862024Y-40088353D01*
X258858514Y-40064692D01*
X258857340Y-40040800D01*
X258857340Y-39553300D01*
X258858514Y-39529408D01*
X258862024Y-39505747D01*
X258867836Y-39482543D01*
X258875894Y-39460021D01*
X258886122Y-39438397D01*
X258898419Y-39417880D01*
X258912669Y-39398667D01*
X258928733Y-39380943D01*
X258946457Y-39364879D01*
X258965670Y-39350629D01*
X258986187Y-39338332D01*
X259007811Y-39328104D01*
X259030333Y-39320046D01*
X259053537Y-39314234D01*
X259077198Y-39310724D01*
X259101090Y-39309550D01*
X260013590Y-39309550D01*
X260037482Y-39310724D01*
X260037482Y-39310724D01*
G37*
D18*
X259557340Y-39797050D03*
D11*
G36*
X260037482Y-41185724D02*
G01*
X260061143Y-41189234D01*
X260084347Y-41195046D01*
X260106869Y-41203104D01*
X260128493Y-41213332D01*
X260149010Y-41225629D01*
X260168223Y-41239879D01*
X260185947Y-41255943D01*
X260202011Y-41273667D01*
X260216261Y-41292880D01*
X260228558Y-41313397D01*
X260238786Y-41335021D01*
X260246844Y-41357543D01*
X260252656Y-41380747D01*
X260256166Y-41404408D01*
X260257340Y-41428300D01*
X260257340Y-41915800D01*
X260256166Y-41939692D01*
X260252656Y-41963353D01*
X260246844Y-41986557D01*
X260238786Y-42009079D01*
X260228558Y-42030703D01*
X260216261Y-42051220D01*
X260202011Y-42070433D01*
X260185947Y-42088157D01*
X260168223Y-42104221D01*
X260149010Y-42118471D01*
X260128493Y-42130768D01*
X260106869Y-42140996D01*
X260084347Y-42149054D01*
X260061143Y-42154866D01*
X260037482Y-42158376D01*
X260013590Y-42159550D01*
X259101090Y-42159550D01*
X259077198Y-42158376D01*
X259053537Y-42154866D01*
X259030333Y-42149054D01*
X259007811Y-42140996D01*
X258986187Y-42130768D01*
X258965670Y-42118471D01*
X258946457Y-42104221D01*
X258928733Y-42088157D01*
X258912669Y-42070433D01*
X258898419Y-42051220D01*
X258886122Y-42030703D01*
X258875894Y-42009079D01*
X258867836Y-41986557D01*
X258862024Y-41963353D01*
X258858514Y-41939692D01*
X258857340Y-41915800D01*
X258857340Y-41428300D01*
X258858514Y-41404408D01*
X258862024Y-41380747D01*
X258867836Y-41357543D01*
X258875894Y-41335021D01*
X258886122Y-41313397D01*
X258898419Y-41292880D01*
X258912669Y-41273667D01*
X258928733Y-41255943D01*
X258946457Y-41239879D01*
X258965670Y-41225629D01*
X258986187Y-41213332D01*
X259007811Y-41203104D01*
X259030333Y-41195046D01*
X259053537Y-41189234D01*
X259077198Y-41185724D01*
X259101090Y-41184550D01*
X260013590Y-41184550D01*
X260037482Y-41185724D01*
X260037482Y-41185724D01*
G37*
D18*
X259557340Y-41672050D03*
D11*
G36*
X262418742Y-39310724D02*
G01*
X262442403Y-39314234D01*
X262465607Y-39320046D01*
X262488129Y-39328104D01*
X262509753Y-39338332D01*
X262530270Y-39350629D01*
X262549483Y-39364879D01*
X262567207Y-39380943D01*
X262583271Y-39398667D01*
X262597521Y-39417880D01*
X262609818Y-39438397D01*
X262620046Y-39460021D01*
X262628104Y-39482543D01*
X262633916Y-39505747D01*
X262637426Y-39529408D01*
X262638600Y-39553300D01*
X262638600Y-40040800D01*
X262637426Y-40064692D01*
X262633916Y-40088353D01*
X262628104Y-40111557D01*
X262620046Y-40134079D01*
X262609818Y-40155703D01*
X262597521Y-40176220D01*
X262583271Y-40195433D01*
X262567207Y-40213157D01*
X262549483Y-40229221D01*
X262530270Y-40243471D01*
X262509753Y-40255768D01*
X262488129Y-40265996D01*
X262465607Y-40274054D01*
X262442403Y-40279866D01*
X262418742Y-40283376D01*
X262394850Y-40284550D01*
X261482350Y-40284550D01*
X261458458Y-40283376D01*
X261434797Y-40279866D01*
X261411593Y-40274054D01*
X261389071Y-40265996D01*
X261367447Y-40255768D01*
X261346930Y-40243471D01*
X261327717Y-40229221D01*
X261309993Y-40213157D01*
X261293929Y-40195433D01*
X261279679Y-40176220D01*
X261267382Y-40155703D01*
X261257154Y-40134079D01*
X261249096Y-40111557D01*
X261243284Y-40088353D01*
X261239774Y-40064692D01*
X261238600Y-40040800D01*
X261238600Y-39553300D01*
X261239774Y-39529408D01*
X261243284Y-39505747D01*
X261249096Y-39482543D01*
X261257154Y-39460021D01*
X261267382Y-39438397D01*
X261279679Y-39417880D01*
X261293929Y-39398667D01*
X261309993Y-39380943D01*
X261327717Y-39364879D01*
X261346930Y-39350629D01*
X261367447Y-39338332D01*
X261389071Y-39328104D01*
X261411593Y-39320046D01*
X261434797Y-39314234D01*
X261458458Y-39310724D01*
X261482350Y-39309550D01*
X262394850Y-39309550D01*
X262418742Y-39310724D01*
X262418742Y-39310724D01*
G37*
D18*
X261938600Y-39797050D03*
D11*
G36*
X262418742Y-41185724D02*
G01*
X262442403Y-41189234D01*
X262465607Y-41195046D01*
X262488129Y-41203104D01*
X262509753Y-41213332D01*
X262530270Y-41225629D01*
X262549483Y-41239879D01*
X262567207Y-41255943D01*
X262583271Y-41273667D01*
X262597521Y-41292880D01*
X262609818Y-41313397D01*
X262620046Y-41335021D01*
X262628104Y-41357543D01*
X262633916Y-41380747D01*
X262637426Y-41404408D01*
X262638600Y-41428300D01*
X262638600Y-41915800D01*
X262637426Y-41939692D01*
X262633916Y-41963353D01*
X262628104Y-41986557D01*
X262620046Y-42009079D01*
X262609818Y-42030703D01*
X262597521Y-42051220D01*
X262583271Y-42070433D01*
X262567207Y-42088157D01*
X262549483Y-42104221D01*
X262530270Y-42118471D01*
X262509753Y-42130768D01*
X262488129Y-42140996D01*
X262465607Y-42149054D01*
X262442403Y-42154866D01*
X262418742Y-42158376D01*
X262394850Y-42159550D01*
X261482350Y-42159550D01*
X261458458Y-42158376D01*
X261434797Y-42154866D01*
X261411593Y-42149054D01*
X261389071Y-42140996D01*
X261367447Y-42130768D01*
X261346930Y-42118471D01*
X261327717Y-42104221D01*
X261309993Y-42088157D01*
X261293929Y-42070433D01*
X261279679Y-42051220D01*
X261267382Y-42030703D01*
X261257154Y-42009079D01*
X261249096Y-41986557D01*
X261243284Y-41963353D01*
X261239774Y-41939692D01*
X261238600Y-41915800D01*
X261238600Y-41428300D01*
X261239774Y-41404408D01*
X261243284Y-41380747D01*
X261249096Y-41357543D01*
X261257154Y-41335021D01*
X261267382Y-41313397D01*
X261279679Y-41292880D01*
X261293929Y-41273667D01*
X261309993Y-41255943D01*
X261327717Y-41239879D01*
X261346930Y-41225629D01*
X261367447Y-41213332D01*
X261389071Y-41203104D01*
X261411593Y-41195046D01*
X261434797Y-41189234D01*
X261458458Y-41185724D01*
X261482350Y-41184550D01*
X262394850Y-41184550D01*
X262418742Y-41185724D01*
X262418742Y-41185724D01*
G37*
D18*
X261938600Y-41672050D03*
D11*
G36*
X279907383Y-35875399D02*
G01*
X279931652Y-35878999D01*
X279955450Y-35884960D01*
X279978550Y-35893225D01*
X280000728Y-35903715D01*
X280021772Y-35916328D01*
X280041477Y-35930942D01*
X280059656Y-35947418D01*
X280589986Y-36477748D01*
X280606462Y-36495927D01*
X280621076Y-36515632D01*
X280633689Y-36536676D01*
X280644179Y-36558854D01*
X280652444Y-36581954D01*
X280658405Y-36605752D01*
X280662005Y-36630021D01*
X280663209Y-36654525D01*
X280662005Y-36679029D01*
X280658405Y-36703298D01*
X280652444Y-36727096D01*
X280644179Y-36750196D01*
X280633689Y-36772374D01*
X280621076Y-36793418D01*
X280606462Y-36813123D01*
X280589986Y-36831302D01*
X279706102Y-37715186D01*
X279687923Y-37731662D01*
X279668218Y-37746276D01*
X279647174Y-37758889D01*
X279624996Y-37769379D01*
X279601896Y-37777644D01*
X279578098Y-37783605D01*
X279553829Y-37787205D01*
X279529325Y-37788409D01*
X279504821Y-37787205D01*
X279480552Y-37783605D01*
X279456754Y-37777644D01*
X279433654Y-37769379D01*
X279411476Y-37758889D01*
X279390432Y-37746276D01*
X279370727Y-37731662D01*
X279352548Y-37715186D01*
X278822218Y-37184856D01*
X278805742Y-37166677D01*
X278791128Y-37146972D01*
X278778515Y-37125928D01*
X278768025Y-37103750D01*
X278759760Y-37080650D01*
X278753799Y-37056852D01*
X278750199Y-37032583D01*
X278748995Y-37008079D01*
X278750199Y-36983575D01*
X278753799Y-36959306D01*
X278759760Y-36935508D01*
X278768025Y-36912408D01*
X278778515Y-36890230D01*
X278791128Y-36869186D01*
X278805742Y-36849481D01*
X278822218Y-36831302D01*
X279706102Y-35947418D01*
X279724281Y-35930942D01*
X279743986Y-35916328D01*
X279765030Y-35903715D01*
X279787208Y-35893225D01*
X279810308Y-35884960D01*
X279834106Y-35878999D01*
X279858375Y-35875399D01*
X279882879Y-35874195D01*
X279907383Y-35875399D01*
X279907383Y-35875399D01*
G37*
D19*
X279706102Y-36831302D03*
D11*
G36*
X281887281Y-37855297D02*
G01*
X281911550Y-37858897D01*
X281935348Y-37864858D01*
X281958448Y-37873123D01*
X281980626Y-37883613D01*
X282001670Y-37896226D01*
X282021375Y-37910840D01*
X282039554Y-37927316D01*
X282569884Y-38457646D01*
X282586360Y-38475825D01*
X282600974Y-38495530D01*
X282613587Y-38516574D01*
X282624077Y-38538752D01*
X282632342Y-38561852D01*
X282638303Y-38585650D01*
X282641903Y-38609919D01*
X282643107Y-38634423D01*
X282641903Y-38658927D01*
X282638303Y-38683196D01*
X282632342Y-38706994D01*
X282624077Y-38730094D01*
X282613587Y-38752272D01*
X282600974Y-38773316D01*
X282586360Y-38793021D01*
X282569884Y-38811200D01*
X281686000Y-39695084D01*
X281667821Y-39711560D01*
X281648116Y-39726174D01*
X281627072Y-39738787D01*
X281604894Y-39749277D01*
X281581794Y-39757542D01*
X281557996Y-39763503D01*
X281533727Y-39767103D01*
X281509223Y-39768307D01*
X281484719Y-39767103D01*
X281460450Y-39763503D01*
X281436652Y-39757542D01*
X281413552Y-39749277D01*
X281391374Y-39738787D01*
X281370330Y-39726174D01*
X281350625Y-39711560D01*
X281332446Y-39695084D01*
X280802116Y-39164754D01*
X280785640Y-39146575D01*
X280771026Y-39126870D01*
X280758413Y-39105826D01*
X280747923Y-39083648D01*
X280739658Y-39060548D01*
X280733697Y-39036750D01*
X280730097Y-39012481D01*
X280728893Y-38987977D01*
X280730097Y-38963473D01*
X280733697Y-38939204D01*
X280739658Y-38915406D01*
X280747923Y-38892306D01*
X280758413Y-38870128D01*
X280771026Y-38849084D01*
X280785640Y-38829379D01*
X280802116Y-38811200D01*
X281686000Y-37927316D01*
X281704179Y-37910840D01*
X281723884Y-37896226D01*
X281744928Y-37883613D01*
X281767106Y-37873123D01*
X281790206Y-37864858D01*
X281814004Y-37858897D01*
X281838273Y-37855297D01*
X281862777Y-37854093D01*
X281887281Y-37855297D01*
X281887281Y-37855297D01*
G37*
D19*
X281686000Y-38811200D03*
D20*
X247651040Y-105506700D03*
X247651040Y-108806700D03*
X198835210Y-105506700D03*
X198835210Y-108806700D03*
X191691430Y-105506700D03*
X191691430Y-108806700D03*
X184547650Y-105506700D03*
X184547650Y-108806700D03*
X177403870Y-105506700D03*
X177403870Y-108806700D03*
X161925680Y-105506700D03*
X161925680Y-108806700D03*
X134541190Y-105506700D03*
X134541190Y-108806700D03*
X127397410Y-105506700D03*
X127397410Y-108806700D03*
X120253630Y-105506700D03*
X120253630Y-108806700D03*
X80962840Y-105506700D03*
X80962840Y-108806700D03*
X273844900Y-86456620D03*
X273844900Y-89756620D03*
X247651040Y-86456620D03*
X247651040Y-89756620D03*
X228600960Y-86456620D03*
X228600960Y-89756620D03*
X209550880Y-86456620D03*
X209550880Y-89756620D03*
X190500800Y-86456620D03*
X190500800Y-89756620D03*
X171450720Y-86456620D03*
X171450720Y-89756620D03*
X152400640Y-86456620D03*
X152400640Y-89756620D03*
X133350560Y-86456620D03*
X133350560Y-89756620D03*
X114300480Y-86456620D03*
X114300480Y-89756620D03*
X95250400Y-86456620D03*
X95250400Y-89756620D03*
X76200320Y-86456620D03*
X76200320Y-89756620D03*
X47625200Y-86456620D03*
X47625200Y-89756620D03*
X267891750Y-58340870D03*
X267891750Y-61640870D03*
X247218200Y-63728600D03*
X247218200Y-67028600D03*
X238126000Y-67406540D03*
X238126000Y-70706540D03*
X219075920Y-67406540D03*
X219075920Y-70706540D03*
X200025840Y-67406540D03*
X200025840Y-70706540D03*
X180975760Y-67406540D03*
X180975760Y-70706540D03*
X161925680Y-67406540D03*
X161925680Y-70706540D03*
X142875600Y-67406540D03*
X142875600Y-70706540D03*
X123825520Y-67406540D03*
X123825520Y-70706540D03*
X104775440Y-67406540D03*
X104775440Y-70706540D03*
X85725360Y-67406540D03*
X85725360Y-70706540D03*
X66675280Y-67406540D03*
X66675280Y-70706540D03*
X42862680Y-67406540D03*
X42862680Y-70706540D03*
X270273010Y-48356460D03*
X270273010Y-51656460D03*
X252413560Y-48356460D03*
X252413560Y-51656460D03*
X233363480Y-48356460D03*
X233363480Y-51656460D03*
X214313400Y-48356460D03*
X214313400Y-51656460D03*
X195263320Y-48356460D03*
X195263320Y-51656460D03*
X176213240Y-48356460D03*
X176213240Y-51656460D03*
X157163160Y-48356460D03*
X157163160Y-51656460D03*
X138113080Y-48356460D03*
X138113080Y-51656460D03*
X119063000Y-48356460D03*
X119063000Y-51656460D03*
X100012920Y-48356460D03*
X100012920Y-51656460D03*
X80962840Y-48356460D03*
X80962840Y-51656460D03*
X61912760Y-48356460D03*
X61912760Y-51656460D03*
X40481420Y-48356460D03*
X40481420Y-51656460D03*
X261938600Y-29306380D03*
X261938600Y-32606380D03*
X242888520Y-29306380D03*
X242888520Y-32606380D03*
X223838440Y-29306380D03*
X223838440Y-32606380D03*
X204788360Y-29306380D03*
X204788360Y-32606380D03*
X185738280Y-29306380D03*
X185738280Y-32606380D03*
X166688200Y-29306380D03*
X166688200Y-32606380D03*
X147638120Y-29306380D03*
X147638120Y-32606380D03*
X128588040Y-29306380D03*
X128588040Y-32606380D03*
X109537960Y-29306380D03*
X109537960Y-32606380D03*
X90487880Y-29306380D03*
X90487880Y-32606380D03*
X71437800Y-29306380D03*
X71437800Y-32606380D03*
X52387720Y-29306380D03*
X52387720Y-32606380D03*
D11*
G36*
X253514942Y-88993275D02*
G01*
X253538603Y-88996785D01*
X253561807Y-89002597D01*
X253584329Y-89010655D01*
X253605953Y-89020883D01*
X253626470Y-89033180D01*
X253645683Y-89047430D01*
X253663407Y-89063494D01*
X253679471Y-89081218D01*
X253693721Y-89100431D01*
X253706018Y-89120948D01*
X253716246Y-89142572D01*
X253724304Y-89165094D01*
X253730116Y-89188298D01*
X253733626Y-89211959D01*
X253734800Y-89235851D01*
X253734800Y-89723351D01*
X253733626Y-89747243D01*
X253730116Y-89770904D01*
X253724304Y-89794108D01*
X253716246Y-89816630D01*
X253706018Y-89838254D01*
X253693721Y-89858771D01*
X253679471Y-89877984D01*
X253663407Y-89895708D01*
X253645683Y-89911772D01*
X253626470Y-89926022D01*
X253605953Y-89938319D01*
X253584329Y-89948547D01*
X253561807Y-89956605D01*
X253538603Y-89962417D01*
X253514942Y-89965927D01*
X253491050Y-89967101D01*
X252578550Y-89967101D01*
X252554658Y-89965927D01*
X252530997Y-89962417D01*
X252507793Y-89956605D01*
X252485271Y-89948547D01*
X252463647Y-89938319D01*
X252443130Y-89926022D01*
X252423917Y-89911772D01*
X252406193Y-89895708D01*
X252390129Y-89877984D01*
X252375879Y-89858771D01*
X252363582Y-89838254D01*
X252353354Y-89816630D01*
X252345296Y-89794108D01*
X252339484Y-89770904D01*
X252335974Y-89747243D01*
X252334800Y-89723351D01*
X252334800Y-89235851D01*
X252335974Y-89211959D01*
X252339484Y-89188298D01*
X252345296Y-89165094D01*
X252353354Y-89142572D01*
X252363582Y-89120948D01*
X252375879Y-89100431D01*
X252390129Y-89081218D01*
X252406193Y-89063494D01*
X252423917Y-89047430D01*
X252443130Y-89033180D01*
X252463647Y-89020883D01*
X252485271Y-89010655D01*
X252507793Y-89002597D01*
X252530997Y-88996785D01*
X252554658Y-88993275D01*
X252578550Y-88992101D01*
X253491050Y-88992101D01*
X253514942Y-88993275D01*
X253514942Y-88993275D01*
G37*
D18*
X253034800Y-89479601D03*
D11*
G36*
X253514942Y-87118275D02*
G01*
X253538603Y-87121785D01*
X253561807Y-87127597D01*
X253584329Y-87135655D01*
X253605953Y-87145883D01*
X253626470Y-87158180D01*
X253645683Y-87172430D01*
X253663407Y-87188494D01*
X253679471Y-87206218D01*
X253693721Y-87225431D01*
X253706018Y-87245948D01*
X253716246Y-87267572D01*
X253724304Y-87290094D01*
X253730116Y-87313298D01*
X253733626Y-87336959D01*
X253734800Y-87360851D01*
X253734800Y-87848351D01*
X253733626Y-87872243D01*
X253730116Y-87895904D01*
X253724304Y-87919108D01*
X253716246Y-87941630D01*
X253706018Y-87963254D01*
X253693721Y-87983771D01*
X253679471Y-88002984D01*
X253663407Y-88020708D01*
X253645683Y-88036772D01*
X253626470Y-88051022D01*
X253605953Y-88063319D01*
X253584329Y-88073547D01*
X253561807Y-88081605D01*
X253538603Y-88087417D01*
X253514942Y-88090927D01*
X253491050Y-88092101D01*
X252578550Y-88092101D01*
X252554658Y-88090927D01*
X252530997Y-88087417D01*
X252507793Y-88081605D01*
X252485271Y-88073547D01*
X252463647Y-88063319D01*
X252443130Y-88051022D01*
X252423917Y-88036772D01*
X252406193Y-88020708D01*
X252390129Y-88002984D01*
X252375879Y-87983771D01*
X252363582Y-87963254D01*
X252353354Y-87941630D01*
X252345296Y-87919108D01*
X252339484Y-87895904D01*
X252335974Y-87872243D01*
X252334800Y-87848351D01*
X252334800Y-87360851D01*
X252335974Y-87336959D01*
X252339484Y-87313298D01*
X252345296Y-87290094D01*
X252353354Y-87267572D01*
X252363582Y-87245948D01*
X252375879Y-87225431D01*
X252390129Y-87206218D01*
X252406193Y-87188494D01*
X252423917Y-87172430D01*
X252443130Y-87158180D01*
X252463647Y-87145883D01*
X252485271Y-87135655D01*
X252507793Y-87127597D01*
X252530997Y-87121785D01*
X252554658Y-87118275D01*
X252578550Y-87117101D01*
X253491050Y-87117101D01*
X253514942Y-87118275D01*
X253514942Y-87118275D01*
G37*
D18*
X253034800Y-87604601D03*
D11*
G36*
X269266032Y-73786049D02*
G01*
X269289693Y-73789559D01*
X269312897Y-73795371D01*
X269335419Y-73803429D01*
X269357043Y-73813657D01*
X269377560Y-73825954D01*
X269396773Y-73840204D01*
X269414497Y-73856268D01*
X270059732Y-74501503D01*
X270075796Y-74519227D01*
X270090046Y-74538440D01*
X270102343Y-74558957D01*
X270112571Y-74580581D01*
X270120629Y-74603103D01*
X270126441Y-74626307D01*
X270129951Y-74649968D01*
X270131125Y-74673860D01*
X270129951Y-74697752D01*
X270126441Y-74721413D01*
X270120629Y-74744617D01*
X270112571Y-74767139D01*
X270102343Y-74788763D01*
X270090046Y-74809280D01*
X270075796Y-74828493D01*
X270059732Y-74846217D01*
X269715017Y-75190932D01*
X269697293Y-75206996D01*
X269678080Y-75221246D01*
X269657563Y-75233543D01*
X269635939Y-75243771D01*
X269613417Y-75251829D01*
X269590213Y-75257641D01*
X269566552Y-75261151D01*
X269542660Y-75262325D01*
X269518768Y-75261151D01*
X269495107Y-75257641D01*
X269471903Y-75251829D01*
X269449381Y-75243771D01*
X269427757Y-75233543D01*
X269407240Y-75221246D01*
X269388027Y-75206996D01*
X269370303Y-75190932D01*
X268725068Y-74545697D01*
X268709004Y-74527973D01*
X268694754Y-74508760D01*
X268682457Y-74488243D01*
X268672229Y-74466619D01*
X268664171Y-74444097D01*
X268658359Y-74420893D01*
X268654849Y-74397232D01*
X268653675Y-74373340D01*
X268654849Y-74349448D01*
X268658359Y-74325787D01*
X268664171Y-74302583D01*
X268672229Y-74280061D01*
X268682457Y-74258437D01*
X268694754Y-74237920D01*
X268709004Y-74218707D01*
X268725068Y-74200983D01*
X269069783Y-73856268D01*
X269087507Y-73840204D01*
X269106720Y-73825954D01*
X269127237Y-73813657D01*
X269148861Y-73803429D01*
X269171383Y-73795371D01*
X269194587Y-73789559D01*
X269218248Y-73786049D01*
X269242140Y-73784875D01*
X269266032Y-73786049D01*
X269266032Y-73786049D01*
G37*
D18*
X269392400Y-74523600D03*
D11*
G36*
X267940206Y-75111875D02*
G01*
X267963867Y-75115385D01*
X267987071Y-75121197D01*
X268009593Y-75129255D01*
X268031217Y-75139483D01*
X268051734Y-75151780D01*
X268070947Y-75166030D01*
X268088671Y-75182094D01*
X268733906Y-75827329D01*
X268749970Y-75845053D01*
X268764220Y-75864266D01*
X268776517Y-75884783D01*
X268786745Y-75906407D01*
X268794803Y-75928929D01*
X268800615Y-75952133D01*
X268804125Y-75975794D01*
X268805299Y-75999686D01*
X268804125Y-76023578D01*
X268800615Y-76047239D01*
X268794803Y-76070443D01*
X268786745Y-76092965D01*
X268776517Y-76114589D01*
X268764220Y-76135106D01*
X268749970Y-76154319D01*
X268733906Y-76172043D01*
X268389191Y-76516758D01*
X268371467Y-76532822D01*
X268352254Y-76547072D01*
X268331737Y-76559369D01*
X268310113Y-76569597D01*
X268287591Y-76577655D01*
X268264387Y-76583467D01*
X268240726Y-76586977D01*
X268216834Y-76588151D01*
X268192942Y-76586977D01*
X268169281Y-76583467D01*
X268146077Y-76577655D01*
X268123555Y-76569597D01*
X268101931Y-76559369D01*
X268081414Y-76547072D01*
X268062201Y-76532822D01*
X268044477Y-76516758D01*
X267399242Y-75871523D01*
X267383178Y-75853799D01*
X267368928Y-75834586D01*
X267356631Y-75814069D01*
X267346403Y-75792445D01*
X267338345Y-75769923D01*
X267332533Y-75746719D01*
X267329023Y-75723058D01*
X267327849Y-75699166D01*
X267329023Y-75675274D01*
X267332533Y-75651613D01*
X267338345Y-75628409D01*
X267346403Y-75605887D01*
X267356631Y-75584263D01*
X267368928Y-75563746D01*
X267383178Y-75544533D01*
X267399242Y-75526809D01*
X267743957Y-75182094D01*
X267761681Y-75166030D01*
X267780894Y-75151780D01*
X267801411Y-75139483D01*
X267823035Y-75129255D01*
X267845557Y-75121197D01*
X267868761Y-75115385D01*
X267892422Y-75111875D01*
X267916314Y-75110701D01*
X267940206Y-75111875D01*
X267940206Y-75111875D01*
G37*
D18*
X268066574Y-75849426D03*
D11*
G36*
X262331832Y-66648649D02*
G01*
X262355493Y-66652159D01*
X262378697Y-66657971D01*
X262401219Y-66666029D01*
X262422843Y-66676257D01*
X262443360Y-66688554D01*
X262462573Y-66702804D01*
X262480297Y-66718868D01*
X263125532Y-67364103D01*
X263141596Y-67381827D01*
X263155846Y-67401040D01*
X263168143Y-67421557D01*
X263178371Y-67443181D01*
X263186429Y-67465703D01*
X263192241Y-67488907D01*
X263195751Y-67512568D01*
X263196925Y-67536460D01*
X263195751Y-67560352D01*
X263192241Y-67584013D01*
X263186429Y-67607217D01*
X263178371Y-67629739D01*
X263168143Y-67651363D01*
X263155846Y-67671880D01*
X263141596Y-67691093D01*
X263125532Y-67708817D01*
X262780817Y-68053532D01*
X262763093Y-68069596D01*
X262743880Y-68083846D01*
X262723363Y-68096143D01*
X262701739Y-68106371D01*
X262679217Y-68114429D01*
X262656013Y-68120241D01*
X262632352Y-68123751D01*
X262608460Y-68124925D01*
X262584568Y-68123751D01*
X262560907Y-68120241D01*
X262537703Y-68114429D01*
X262515181Y-68106371D01*
X262493557Y-68096143D01*
X262473040Y-68083846D01*
X262453827Y-68069596D01*
X262436103Y-68053532D01*
X261790868Y-67408297D01*
X261774804Y-67390573D01*
X261760554Y-67371360D01*
X261748257Y-67350843D01*
X261738029Y-67329219D01*
X261729971Y-67306697D01*
X261724159Y-67283493D01*
X261720649Y-67259832D01*
X261719475Y-67235940D01*
X261720649Y-67212048D01*
X261724159Y-67188387D01*
X261729971Y-67165183D01*
X261738029Y-67142661D01*
X261748257Y-67121037D01*
X261760554Y-67100520D01*
X261774804Y-67081307D01*
X261790868Y-67063583D01*
X262135583Y-66718868D01*
X262153307Y-66702804D01*
X262172520Y-66688554D01*
X262193037Y-66676257D01*
X262214661Y-66666029D01*
X262237183Y-66657971D01*
X262260387Y-66652159D01*
X262284048Y-66648649D01*
X262307940Y-66647475D01*
X262331832Y-66648649D01*
X262331832Y-66648649D01*
G37*
D18*
X262458200Y-67386200D03*
D11*
G36*
X261006006Y-67974475D02*
G01*
X261029667Y-67977985D01*
X261052871Y-67983797D01*
X261075393Y-67991855D01*
X261097017Y-68002083D01*
X261117534Y-68014380D01*
X261136747Y-68028630D01*
X261154471Y-68044694D01*
X261799706Y-68689929D01*
X261815770Y-68707653D01*
X261830020Y-68726866D01*
X261842317Y-68747383D01*
X261852545Y-68769007D01*
X261860603Y-68791529D01*
X261866415Y-68814733D01*
X261869925Y-68838394D01*
X261871099Y-68862286D01*
X261869925Y-68886178D01*
X261866415Y-68909839D01*
X261860603Y-68933043D01*
X261852545Y-68955565D01*
X261842317Y-68977189D01*
X261830020Y-68997706D01*
X261815770Y-69016919D01*
X261799706Y-69034643D01*
X261454991Y-69379358D01*
X261437267Y-69395422D01*
X261418054Y-69409672D01*
X261397537Y-69421969D01*
X261375913Y-69432197D01*
X261353391Y-69440255D01*
X261330187Y-69446067D01*
X261306526Y-69449577D01*
X261282634Y-69450751D01*
X261258742Y-69449577D01*
X261235081Y-69446067D01*
X261211877Y-69440255D01*
X261189355Y-69432197D01*
X261167731Y-69421969D01*
X261147214Y-69409672D01*
X261128001Y-69395422D01*
X261110277Y-69379358D01*
X260465042Y-68734123D01*
X260448978Y-68716399D01*
X260434728Y-68697186D01*
X260422431Y-68676669D01*
X260412203Y-68655045D01*
X260404145Y-68632523D01*
X260398333Y-68609319D01*
X260394823Y-68585658D01*
X260393649Y-68561766D01*
X260394823Y-68537874D01*
X260398333Y-68514213D01*
X260404145Y-68491009D01*
X260412203Y-68468487D01*
X260422431Y-68446863D01*
X260434728Y-68426346D01*
X260448978Y-68407133D01*
X260465042Y-68389409D01*
X260809757Y-68044694D01*
X260827481Y-68028630D01*
X260846694Y-68014380D01*
X260867211Y-68002083D01*
X260888835Y-67991855D01*
X260911357Y-67983797D01*
X260934561Y-67977985D01*
X260958222Y-67974475D01*
X260982114Y-67973301D01*
X261006006Y-67974475D01*
X261006006Y-67974475D01*
G37*
D18*
X261132374Y-68712026D03*
D11*
G36*
X247206443Y-74129574D02*
G01*
X247230104Y-74133084D01*
X247253308Y-74138896D01*
X247275830Y-74146954D01*
X247297454Y-74157182D01*
X247317971Y-74169479D01*
X247337184Y-74183729D01*
X247354908Y-74199793D01*
X247370972Y-74217517D01*
X247385222Y-74236730D01*
X247397519Y-74257247D01*
X247407747Y-74278871D01*
X247415805Y-74301393D01*
X247421617Y-74324597D01*
X247425127Y-74348258D01*
X247426301Y-74372150D01*
X247426301Y-75284650D01*
X247425127Y-75308542D01*
X247421617Y-75332203D01*
X247415805Y-75355407D01*
X247407747Y-75377929D01*
X247397519Y-75399553D01*
X247385222Y-75420070D01*
X247370972Y-75439283D01*
X247354908Y-75457007D01*
X247337184Y-75473071D01*
X247317971Y-75487321D01*
X247297454Y-75499618D01*
X247275830Y-75509846D01*
X247253308Y-75517904D01*
X247230104Y-75523716D01*
X247206443Y-75527226D01*
X247182551Y-75528400D01*
X246695051Y-75528400D01*
X246671159Y-75527226D01*
X246647498Y-75523716D01*
X246624294Y-75517904D01*
X246601772Y-75509846D01*
X246580148Y-75499618D01*
X246559631Y-75487321D01*
X246540418Y-75473071D01*
X246522694Y-75457007D01*
X246506630Y-75439283D01*
X246492380Y-75420070D01*
X246480083Y-75399553D01*
X246469855Y-75377929D01*
X246461797Y-75355407D01*
X246455985Y-75332203D01*
X246452475Y-75308542D01*
X246451301Y-75284650D01*
X246451301Y-74372150D01*
X246452475Y-74348258D01*
X246455985Y-74324597D01*
X246461797Y-74301393D01*
X246469855Y-74278871D01*
X246480083Y-74257247D01*
X246492380Y-74236730D01*
X246506630Y-74217517D01*
X246522694Y-74199793D01*
X246540418Y-74183729D01*
X246559631Y-74169479D01*
X246580148Y-74157182D01*
X246601772Y-74146954D01*
X246624294Y-74138896D01*
X246647498Y-74133084D01*
X246671159Y-74129574D01*
X246695051Y-74128400D01*
X247182551Y-74128400D01*
X247206443Y-74129574D01*
X247206443Y-74129574D01*
G37*
D18*
X246938801Y-74828400D03*
D11*
G36*
X249081443Y-74129574D02*
G01*
X249105104Y-74133084D01*
X249128308Y-74138896D01*
X249150830Y-74146954D01*
X249172454Y-74157182D01*
X249192971Y-74169479D01*
X249212184Y-74183729D01*
X249229908Y-74199793D01*
X249245972Y-74217517D01*
X249260222Y-74236730D01*
X249272519Y-74257247D01*
X249282747Y-74278871D01*
X249290805Y-74301393D01*
X249296617Y-74324597D01*
X249300127Y-74348258D01*
X249301301Y-74372150D01*
X249301301Y-75284650D01*
X249300127Y-75308542D01*
X249296617Y-75332203D01*
X249290805Y-75355407D01*
X249282747Y-75377929D01*
X249272519Y-75399553D01*
X249260222Y-75420070D01*
X249245972Y-75439283D01*
X249229908Y-75457007D01*
X249212184Y-75473071D01*
X249192971Y-75487321D01*
X249172454Y-75499618D01*
X249150830Y-75509846D01*
X249128308Y-75517904D01*
X249105104Y-75523716D01*
X249081443Y-75527226D01*
X249057551Y-75528400D01*
X248570051Y-75528400D01*
X248546159Y-75527226D01*
X248522498Y-75523716D01*
X248499294Y-75517904D01*
X248476772Y-75509846D01*
X248455148Y-75499618D01*
X248434631Y-75487321D01*
X248415418Y-75473071D01*
X248397694Y-75457007D01*
X248381630Y-75439283D01*
X248367380Y-75420070D01*
X248355083Y-75399553D01*
X248344855Y-75377929D01*
X248336797Y-75355407D01*
X248330985Y-75332203D01*
X248327475Y-75308542D01*
X248326301Y-75284650D01*
X248326301Y-74372150D01*
X248327475Y-74348258D01*
X248330985Y-74324597D01*
X248336797Y-74301393D01*
X248344855Y-74278871D01*
X248355083Y-74257247D01*
X248367380Y-74236730D01*
X248381630Y-74217517D01*
X248397694Y-74199793D01*
X248415418Y-74183729D01*
X248434631Y-74169479D01*
X248455148Y-74157182D01*
X248476772Y-74146954D01*
X248499294Y-74138896D01*
X248522498Y-74133084D01*
X248546159Y-74129574D01*
X248570051Y-74128400D01*
X249057551Y-74128400D01*
X249081443Y-74129574D01*
X249081443Y-74129574D01*
G37*
D18*
X248813801Y-74828400D03*
D11*
G36*
X262124352Y-86536849D02*
G01*
X262148013Y-86540359D01*
X262171217Y-86546171D01*
X262193739Y-86554229D01*
X262215363Y-86564457D01*
X262235880Y-86576754D01*
X262255093Y-86591004D01*
X262272817Y-86607068D01*
X262617532Y-86951783D01*
X262633596Y-86969507D01*
X262647846Y-86988720D01*
X262660143Y-87009237D01*
X262670371Y-87030861D01*
X262678429Y-87053383D01*
X262684241Y-87076587D01*
X262687751Y-87100248D01*
X262688925Y-87124140D01*
X262687751Y-87148032D01*
X262684241Y-87171693D01*
X262678429Y-87194897D01*
X262670371Y-87217419D01*
X262660143Y-87239043D01*
X262647846Y-87259560D01*
X262633596Y-87278773D01*
X262617532Y-87296497D01*
X261972297Y-87941732D01*
X261954573Y-87957796D01*
X261935360Y-87972046D01*
X261914843Y-87984343D01*
X261893219Y-87994571D01*
X261870697Y-88002629D01*
X261847493Y-88008441D01*
X261823832Y-88011951D01*
X261799940Y-88013125D01*
X261776048Y-88011951D01*
X261752387Y-88008441D01*
X261729183Y-88002629D01*
X261706661Y-87994571D01*
X261685037Y-87984343D01*
X261664520Y-87972046D01*
X261645307Y-87957796D01*
X261627583Y-87941732D01*
X261282868Y-87597017D01*
X261266804Y-87579293D01*
X261252554Y-87560080D01*
X261240257Y-87539563D01*
X261230029Y-87517939D01*
X261221971Y-87495417D01*
X261216159Y-87472213D01*
X261212649Y-87448552D01*
X261211475Y-87424660D01*
X261212649Y-87400768D01*
X261216159Y-87377107D01*
X261221971Y-87353903D01*
X261230029Y-87331381D01*
X261240257Y-87309757D01*
X261252554Y-87289240D01*
X261266804Y-87270027D01*
X261282868Y-87252303D01*
X261928103Y-86607068D01*
X261945827Y-86591004D01*
X261965040Y-86576754D01*
X261985557Y-86564457D01*
X262007181Y-86554229D01*
X262029703Y-86546171D01*
X262052907Y-86540359D01*
X262076568Y-86536849D01*
X262100460Y-86535675D01*
X262124352Y-86536849D01*
X262124352Y-86536849D01*
G37*
D18*
X261950200Y-87274400D03*
D11*
G36*
X260798526Y-85211023D02*
G01*
X260822187Y-85214533D01*
X260845391Y-85220345D01*
X260867913Y-85228403D01*
X260889537Y-85238631D01*
X260910054Y-85250928D01*
X260929267Y-85265178D01*
X260946991Y-85281242D01*
X261291706Y-85625957D01*
X261307770Y-85643681D01*
X261322020Y-85662894D01*
X261334317Y-85683411D01*
X261344545Y-85705035D01*
X261352603Y-85727557D01*
X261358415Y-85750761D01*
X261361925Y-85774422D01*
X261363099Y-85798314D01*
X261361925Y-85822206D01*
X261358415Y-85845867D01*
X261352603Y-85869071D01*
X261344545Y-85891593D01*
X261334317Y-85913217D01*
X261322020Y-85933734D01*
X261307770Y-85952947D01*
X261291706Y-85970671D01*
X260646471Y-86615906D01*
X260628747Y-86631970D01*
X260609534Y-86646220D01*
X260589017Y-86658517D01*
X260567393Y-86668745D01*
X260544871Y-86676803D01*
X260521667Y-86682615D01*
X260498006Y-86686125D01*
X260474114Y-86687299D01*
X260450222Y-86686125D01*
X260426561Y-86682615D01*
X260403357Y-86676803D01*
X260380835Y-86668745D01*
X260359211Y-86658517D01*
X260338694Y-86646220D01*
X260319481Y-86631970D01*
X260301757Y-86615906D01*
X259957042Y-86271191D01*
X259940978Y-86253467D01*
X259926728Y-86234254D01*
X259914431Y-86213737D01*
X259904203Y-86192113D01*
X259896145Y-86169591D01*
X259890333Y-86146387D01*
X259886823Y-86122726D01*
X259885649Y-86098834D01*
X259886823Y-86074942D01*
X259890333Y-86051281D01*
X259896145Y-86028077D01*
X259904203Y-86005555D01*
X259914431Y-85983931D01*
X259926728Y-85963414D01*
X259940978Y-85944201D01*
X259957042Y-85926477D01*
X260602277Y-85281242D01*
X260620001Y-85265178D01*
X260639214Y-85250928D01*
X260659731Y-85238631D01*
X260681355Y-85228403D01*
X260703877Y-85220345D01*
X260727081Y-85214533D01*
X260750742Y-85211023D01*
X260774634Y-85209849D01*
X260798526Y-85211023D01*
X260798526Y-85211023D01*
G37*
D18*
X260624374Y-85948574D03*
D11*
G36*
X260681578Y-87964275D02*
G01*
X260705239Y-87967785D01*
X260728443Y-87973597D01*
X260750965Y-87981655D01*
X260772589Y-87991883D01*
X260793106Y-88004180D01*
X260812319Y-88018430D01*
X260830043Y-88034494D01*
X261174758Y-88379209D01*
X261190822Y-88396933D01*
X261205072Y-88416146D01*
X261217369Y-88436663D01*
X261227597Y-88458287D01*
X261235655Y-88480809D01*
X261241467Y-88504013D01*
X261244977Y-88527674D01*
X261246151Y-88551566D01*
X261244977Y-88575458D01*
X261241467Y-88599119D01*
X261235655Y-88622323D01*
X261227597Y-88644845D01*
X261217369Y-88666469D01*
X261205072Y-88686986D01*
X261190822Y-88706199D01*
X261174758Y-88723923D01*
X260529523Y-89369158D01*
X260511799Y-89385222D01*
X260492586Y-89399472D01*
X260472069Y-89411769D01*
X260450445Y-89421997D01*
X260427923Y-89430055D01*
X260404719Y-89435867D01*
X260381058Y-89439377D01*
X260357166Y-89440551D01*
X260333274Y-89439377D01*
X260309613Y-89435867D01*
X260286409Y-89430055D01*
X260263887Y-89421997D01*
X260242263Y-89411769D01*
X260221746Y-89399472D01*
X260202533Y-89385222D01*
X260184809Y-89369158D01*
X259840094Y-89024443D01*
X259824030Y-89006719D01*
X259809780Y-88987506D01*
X259797483Y-88966989D01*
X259787255Y-88945365D01*
X259779197Y-88922843D01*
X259773385Y-88899639D01*
X259769875Y-88875978D01*
X259768701Y-88852086D01*
X259769875Y-88828194D01*
X259773385Y-88804533D01*
X259779197Y-88781329D01*
X259787255Y-88758807D01*
X259797483Y-88737183D01*
X259809780Y-88716666D01*
X259824030Y-88697453D01*
X259840094Y-88679729D01*
X260485329Y-88034494D01*
X260503053Y-88018430D01*
X260522266Y-88004180D01*
X260542783Y-87991883D01*
X260564407Y-87981655D01*
X260586929Y-87973597D01*
X260610133Y-87967785D01*
X260633794Y-87964275D01*
X260657686Y-87963101D01*
X260681578Y-87964275D01*
X260681578Y-87964275D01*
G37*
D18*
X260507426Y-88701826D03*
D11*
G36*
X259355752Y-86638449D02*
G01*
X259379413Y-86641959D01*
X259402617Y-86647771D01*
X259425139Y-86655829D01*
X259446763Y-86666057D01*
X259467280Y-86678354D01*
X259486493Y-86692604D01*
X259504217Y-86708668D01*
X259848932Y-87053383D01*
X259864996Y-87071107D01*
X259879246Y-87090320D01*
X259891543Y-87110837D01*
X259901771Y-87132461D01*
X259909829Y-87154983D01*
X259915641Y-87178187D01*
X259919151Y-87201848D01*
X259920325Y-87225740D01*
X259919151Y-87249632D01*
X259915641Y-87273293D01*
X259909829Y-87296497D01*
X259901771Y-87319019D01*
X259891543Y-87340643D01*
X259879246Y-87361160D01*
X259864996Y-87380373D01*
X259848932Y-87398097D01*
X259203697Y-88043332D01*
X259185973Y-88059396D01*
X259166760Y-88073646D01*
X259146243Y-88085943D01*
X259124619Y-88096171D01*
X259102097Y-88104229D01*
X259078893Y-88110041D01*
X259055232Y-88113551D01*
X259031340Y-88114725D01*
X259007448Y-88113551D01*
X258983787Y-88110041D01*
X258960583Y-88104229D01*
X258938061Y-88096171D01*
X258916437Y-88085943D01*
X258895920Y-88073646D01*
X258876707Y-88059396D01*
X258858983Y-88043332D01*
X258514268Y-87698617D01*
X258498204Y-87680893D01*
X258483954Y-87661680D01*
X258471657Y-87641163D01*
X258461429Y-87619539D01*
X258453371Y-87597017D01*
X258447559Y-87573813D01*
X258444049Y-87550152D01*
X258442875Y-87526260D01*
X258444049Y-87502368D01*
X258447559Y-87478707D01*
X258453371Y-87455503D01*
X258461429Y-87432981D01*
X258471657Y-87411357D01*
X258483954Y-87390840D01*
X258498204Y-87371627D01*
X258514268Y-87353903D01*
X259159503Y-86708668D01*
X259177227Y-86692604D01*
X259196440Y-86678354D01*
X259216957Y-86666057D01*
X259238581Y-86655829D01*
X259261103Y-86647771D01*
X259284307Y-86641959D01*
X259307968Y-86638449D01*
X259331860Y-86637275D01*
X259355752Y-86638449D01*
X259355752Y-86638449D01*
G37*
D18*
X259181600Y-87376000D03*
D11*
G36*
X253464142Y-85259475D02*
G01*
X253487803Y-85262985D01*
X253511007Y-85268797D01*
X253533529Y-85276855D01*
X253555153Y-85287083D01*
X253575670Y-85299380D01*
X253594883Y-85313630D01*
X253612607Y-85329694D01*
X253628671Y-85347418D01*
X253642921Y-85366631D01*
X253655218Y-85387148D01*
X253665446Y-85408772D01*
X253673504Y-85431294D01*
X253679316Y-85454498D01*
X253682826Y-85478159D01*
X253684000Y-85502051D01*
X253684000Y-85989551D01*
X253682826Y-86013443D01*
X253679316Y-86037104D01*
X253673504Y-86060308D01*
X253665446Y-86082830D01*
X253655218Y-86104454D01*
X253642921Y-86124971D01*
X253628671Y-86144184D01*
X253612607Y-86161908D01*
X253594883Y-86177972D01*
X253575670Y-86192222D01*
X253555153Y-86204519D01*
X253533529Y-86214747D01*
X253511007Y-86222805D01*
X253487803Y-86228617D01*
X253464142Y-86232127D01*
X253440250Y-86233301D01*
X252527750Y-86233301D01*
X252503858Y-86232127D01*
X252480197Y-86228617D01*
X252456993Y-86222805D01*
X252434471Y-86214747D01*
X252412847Y-86204519D01*
X252392330Y-86192222D01*
X252373117Y-86177972D01*
X252355393Y-86161908D01*
X252339329Y-86144184D01*
X252325079Y-86124971D01*
X252312782Y-86104454D01*
X252302554Y-86082830D01*
X252294496Y-86060308D01*
X252288684Y-86037104D01*
X252285174Y-86013443D01*
X252284000Y-85989551D01*
X252284000Y-85502051D01*
X252285174Y-85478159D01*
X252288684Y-85454498D01*
X252294496Y-85431294D01*
X252302554Y-85408772D01*
X252312782Y-85387148D01*
X252325079Y-85366631D01*
X252339329Y-85347418D01*
X252355393Y-85329694D01*
X252373117Y-85313630D01*
X252392330Y-85299380D01*
X252412847Y-85287083D01*
X252434471Y-85276855D01*
X252456993Y-85268797D01*
X252480197Y-85262985D01*
X252503858Y-85259475D01*
X252527750Y-85258301D01*
X253440250Y-85258301D01*
X253464142Y-85259475D01*
X253464142Y-85259475D01*
G37*
D18*
X252984000Y-85745801D03*
D11*
G36*
X253464142Y-83384475D02*
G01*
X253487803Y-83387985D01*
X253511007Y-83393797D01*
X253533529Y-83401855D01*
X253555153Y-83412083D01*
X253575670Y-83424380D01*
X253594883Y-83438630D01*
X253612607Y-83454694D01*
X253628671Y-83472418D01*
X253642921Y-83491631D01*
X253655218Y-83512148D01*
X253665446Y-83533772D01*
X253673504Y-83556294D01*
X253679316Y-83579498D01*
X253682826Y-83603159D01*
X253684000Y-83627051D01*
X253684000Y-84114551D01*
X253682826Y-84138443D01*
X253679316Y-84162104D01*
X253673504Y-84185308D01*
X253665446Y-84207830D01*
X253655218Y-84229454D01*
X253642921Y-84249971D01*
X253628671Y-84269184D01*
X253612607Y-84286908D01*
X253594883Y-84302972D01*
X253575670Y-84317222D01*
X253555153Y-84329519D01*
X253533529Y-84339747D01*
X253511007Y-84347805D01*
X253487803Y-84353617D01*
X253464142Y-84357127D01*
X253440250Y-84358301D01*
X252527750Y-84358301D01*
X252503858Y-84357127D01*
X252480197Y-84353617D01*
X252456993Y-84347805D01*
X252434471Y-84339747D01*
X252412847Y-84329519D01*
X252392330Y-84317222D01*
X252373117Y-84302972D01*
X252355393Y-84286908D01*
X252339329Y-84269184D01*
X252325079Y-84249971D01*
X252312782Y-84229454D01*
X252302554Y-84207830D01*
X252294496Y-84185308D01*
X252288684Y-84162104D01*
X252285174Y-84138443D01*
X252284000Y-84114551D01*
X252284000Y-83627051D01*
X252285174Y-83603159D01*
X252288684Y-83579498D01*
X252294496Y-83556294D01*
X252302554Y-83533772D01*
X252312782Y-83512148D01*
X252325079Y-83491631D01*
X252339329Y-83472418D01*
X252355393Y-83454694D01*
X252373117Y-83438630D01*
X252392330Y-83424380D01*
X252412847Y-83412083D01*
X252434471Y-83401855D01*
X252456993Y-83393797D01*
X252480197Y-83387985D01*
X252503858Y-83384475D01*
X252527750Y-83383301D01*
X253440250Y-83383301D01*
X253464142Y-83384475D01*
X253464142Y-83384475D01*
G37*
D18*
X252984000Y-83870801D03*
D11*
G36*
X242040208Y-74876895D02*
G01*
X242063869Y-74880405D01*
X242087073Y-74886217D01*
X242109595Y-74894275D01*
X242131219Y-74904503D01*
X242151736Y-74916800D01*
X242170949Y-74931050D01*
X242188673Y-74947114D01*
X242533388Y-75291829D01*
X242549452Y-75309553D01*
X242563702Y-75328766D01*
X242575999Y-75349283D01*
X242586227Y-75370907D01*
X242594285Y-75393429D01*
X242600097Y-75416633D01*
X242603607Y-75440294D01*
X242604781Y-75464186D01*
X242603607Y-75488078D01*
X242600097Y-75511739D01*
X242594285Y-75534943D01*
X242586227Y-75557465D01*
X242575999Y-75579089D01*
X242563702Y-75599606D01*
X242549452Y-75618819D01*
X242533388Y-75636543D01*
X241888153Y-76281778D01*
X241870429Y-76297842D01*
X241851216Y-76312092D01*
X241830699Y-76324389D01*
X241809075Y-76334617D01*
X241786553Y-76342675D01*
X241763349Y-76348487D01*
X241739688Y-76351997D01*
X241715796Y-76353171D01*
X241691904Y-76351997D01*
X241668243Y-76348487D01*
X241645039Y-76342675D01*
X241622517Y-76334617D01*
X241600893Y-76324389D01*
X241580376Y-76312092D01*
X241561163Y-76297842D01*
X241543439Y-76281778D01*
X241198724Y-75937063D01*
X241182660Y-75919339D01*
X241168410Y-75900126D01*
X241156113Y-75879609D01*
X241145885Y-75857985D01*
X241137827Y-75835463D01*
X241132015Y-75812259D01*
X241128505Y-75788598D01*
X241127331Y-75764706D01*
X241128505Y-75740814D01*
X241132015Y-75717153D01*
X241137827Y-75693949D01*
X241145885Y-75671427D01*
X241156113Y-75649803D01*
X241168410Y-75629286D01*
X241182660Y-75610073D01*
X241198724Y-75592349D01*
X241843959Y-74947114D01*
X241861683Y-74931050D01*
X241880896Y-74916800D01*
X241901413Y-74904503D01*
X241923037Y-74894275D01*
X241945559Y-74886217D01*
X241968763Y-74880405D01*
X241992424Y-74876895D01*
X242016316Y-74875721D01*
X242040208Y-74876895D01*
X242040208Y-74876895D01*
G37*
D18*
X241866056Y-75614446D03*
D11*
G36*
X240714382Y-73551069D02*
G01*
X240738043Y-73554579D01*
X240761247Y-73560391D01*
X240783769Y-73568449D01*
X240805393Y-73578677D01*
X240825910Y-73590974D01*
X240845123Y-73605224D01*
X240862847Y-73621288D01*
X241207562Y-73966003D01*
X241223626Y-73983727D01*
X241237876Y-74002940D01*
X241250173Y-74023457D01*
X241260401Y-74045081D01*
X241268459Y-74067603D01*
X241274271Y-74090807D01*
X241277781Y-74114468D01*
X241278955Y-74138360D01*
X241277781Y-74162252D01*
X241274271Y-74185913D01*
X241268459Y-74209117D01*
X241260401Y-74231639D01*
X241250173Y-74253263D01*
X241237876Y-74273780D01*
X241223626Y-74292993D01*
X241207562Y-74310717D01*
X240562327Y-74955952D01*
X240544603Y-74972016D01*
X240525390Y-74986266D01*
X240504873Y-74998563D01*
X240483249Y-75008791D01*
X240460727Y-75016849D01*
X240437523Y-75022661D01*
X240413862Y-75026171D01*
X240389970Y-75027345D01*
X240366078Y-75026171D01*
X240342417Y-75022661D01*
X240319213Y-75016849D01*
X240296691Y-75008791D01*
X240275067Y-74998563D01*
X240254550Y-74986266D01*
X240235337Y-74972016D01*
X240217613Y-74955952D01*
X239872898Y-74611237D01*
X239856834Y-74593513D01*
X239842584Y-74574300D01*
X239830287Y-74553783D01*
X239820059Y-74532159D01*
X239812001Y-74509637D01*
X239806189Y-74486433D01*
X239802679Y-74462772D01*
X239801505Y-74438880D01*
X239802679Y-74414988D01*
X239806189Y-74391327D01*
X239812001Y-74368123D01*
X239820059Y-74345601D01*
X239830287Y-74323977D01*
X239842584Y-74303460D01*
X239856834Y-74284247D01*
X239872898Y-74266523D01*
X240518133Y-73621288D01*
X240535857Y-73605224D01*
X240555070Y-73590974D01*
X240575587Y-73578677D01*
X240597211Y-73568449D01*
X240619733Y-73560391D01*
X240642937Y-73554579D01*
X240666598Y-73551069D01*
X240690490Y-73549895D01*
X240714382Y-73551069D01*
X240714382Y-73551069D01*
G37*
D18*
X240540230Y-74288620D03*
D11*
G36*
X245653523Y-68576007D02*
G01*
X245677184Y-68579517D01*
X245700388Y-68585329D01*
X245722910Y-68593387D01*
X245744534Y-68603615D01*
X245765051Y-68615912D01*
X245784264Y-68630162D01*
X245801988Y-68646226D01*
X246146703Y-68990941D01*
X246162767Y-69008665D01*
X246177017Y-69027878D01*
X246189314Y-69048395D01*
X246199542Y-69070019D01*
X246207600Y-69092541D01*
X246213412Y-69115745D01*
X246216922Y-69139406D01*
X246218096Y-69163298D01*
X246216922Y-69187190D01*
X246213412Y-69210851D01*
X246207600Y-69234055D01*
X246199542Y-69256577D01*
X246189314Y-69278201D01*
X246177017Y-69298718D01*
X246162767Y-69317931D01*
X246146703Y-69335655D01*
X245501468Y-69980890D01*
X245483744Y-69996954D01*
X245464531Y-70011204D01*
X245444014Y-70023501D01*
X245422390Y-70033729D01*
X245399868Y-70041787D01*
X245376664Y-70047599D01*
X245353003Y-70051109D01*
X245329111Y-70052283D01*
X245305219Y-70051109D01*
X245281558Y-70047599D01*
X245258354Y-70041787D01*
X245235832Y-70033729D01*
X245214208Y-70023501D01*
X245193691Y-70011204D01*
X245174478Y-69996954D01*
X245156754Y-69980890D01*
X244812039Y-69636175D01*
X244795975Y-69618451D01*
X244781725Y-69599238D01*
X244769428Y-69578721D01*
X244759200Y-69557097D01*
X244751142Y-69534575D01*
X244745330Y-69511371D01*
X244741820Y-69487710D01*
X244740646Y-69463818D01*
X244741820Y-69439926D01*
X244745330Y-69416265D01*
X244751142Y-69393061D01*
X244759200Y-69370539D01*
X244769428Y-69348915D01*
X244781725Y-69328398D01*
X244795975Y-69309185D01*
X244812039Y-69291461D01*
X245457274Y-68646226D01*
X245474998Y-68630162D01*
X245494211Y-68615912D01*
X245514728Y-68603615D01*
X245536352Y-68593387D01*
X245558874Y-68585329D01*
X245582078Y-68579517D01*
X245605739Y-68576007D01*
X245629631Y-68574833D01*
X245653523Y-68576007D01*
X245653523Y-68576007D01*
G37*
D18*
X245479371Y-69313558D03*
D11*
G36*
X246979349Y-69901833D02*
G01*
X247003010Y-69905343D01*
X247026214Y-69911155D01*
X247048736Y-69919213D01*
X247070360Y-69929441D01*
X247090877Y-69941738D01*
X247110090Y-69955988D01*
X247127814Y-69972052D01*
X247472529Y-70316767D01*
X247488593Y-70334491D01*
X247502843Y-70353704D01*
X247515140Y-70374221D01*
X247525368Y-70395845D01*
X247533426Y-70418367D01*
X247539238Y-70441571D01*
X247542748Y-70465232D01*
X247543922Y-70489124D01*
X247542748Y-70513016D01*
X247539238Y-70536677D01*
X247533426Y-70559881D01*
X247525368Y-70582403D01*
X247515140Y-70604027D01*
X247502843Y-70624544D01*
X247488593Y-70643757D01*
X247472529Y-70661481D01*
X246827294Y-71306716D01*
X246809570Y-71322780D01*
X246790357Y-71337030D01*
X246769840Y-71349327D01*
X246748216Y-71359555D01*
X246725694Y-71367613D01*
X246702490Y-71373425D01*
X246678829Y-71376935D01*
X246654937Y-71378109D01*
X246631045Y-71376935D01*
X246607384Y-71373425D01*
X246584180Y-71367613D01*
X246561658Y-71359555D01*
X246540034Y-71349327D01*
X246519517Y-71337030D01*
X246500304Y-71322780D01*
X246482580Y-71306716D01*
X246137865Y-70962001D01*
X246121801Y-70944277D01*
X246107551Y-70925064D01*
X246095254Y-70904547D01*
X246085026Y-70882923D01*
X246076968Y-70860401D01*
X246071156Y-70837197D01*
X246067646Y-70813536D01*
X246066472Y-70789644D01*
X246067646Y-70765752D01*
X246071156Y-70742091D01*
X246076968Y-70718887D01*
X246085026Y-70696365D01*
X246095254Y-70674741D01*
X246107551Y-70654224D01*
X246121801Y-70635011D01*
X246137865Y-70617287D01*
X246783100Y-69972052D01*
X246800824Y-69955988D01*
X246820037Y-69941738D01*
X246840554Y-69929441D01*
X246862178Y-69919213D01*
X246884700Y-69911155D01*
X246907904Y-69905343D01*
X246931565Y-69901833D01*
X246955457Y-69900659D01*
X246979349Y-69901833D01*
X246979349Y-69901833D01*
G37*
D18*
X246805197Y-70639384D03*
M02*
