<?xml version="1.0" standalone="no"?>
 <!DOCTYPE svg PUBLIC "-//W3C//DTD SVG 1.1//EN" 
 "http://www.w3.org/Graphics/SVG/1.1/DTD/svg11.dtd"> 
<svg xmlns="http://www.w3.org/2000/svg" version="1.1" 
    width="30.3606cm" height="13.9294cm" viewBox="0 0 119530 54840 ">
<title>SVG Picture created as IBM029Punch-brd.svg date 2021/03/17 12:10:16 </title>
  <desc>Picture generated by PCBNEW </desc>
<g style="fill:#000000; fill-opacity:1;stroke:#000000; stroke-opacity:1;
stroke-linecap:round; stroke-linejoin:round; "
 transform="translate(0 0) scale(1 1)">
</g>
<g style="fill:#000000; fill-opacity:0.0; 
stroke:#000000; stroke-width:-0.000393701; stroke-opacity:1; 
stroke-linecap:round; stroke-linejoin:round;">
</g>
<g style="fill:#000000; fill-opacity:0.0; 
stroke:#000000; stroke-width:59.0551; stroke-opacity:1; 
stroke-linecap:round; stroke-linejoin:round;">
<path d="M103221 28497
L108654 28497
" />
<path d="M108654 23064
L103221 23064
" />
<path d="M108654 23064
L108654 28497
" />
<path d="M103221 28497
L103221 23064
" />
<path d="M103221 32247
L108654 32247
" />
<path d="M108654 26814
L103221 26814
" />
<path d="M108654 26814
L108654 32247
" />
<path d="M103221 32247
L103221 26814
" />
<path d="M101346 39747
L106779 39747
" />
<path d="M106779 34314
L101346 34314
" />
<path d="M106779 34314
L106779 39747
" />
<path d="M101346 39747
L101346 34314
" />
<path d="M91033 39747
L96466 39747
" />
<path d="M96466 34314
L91033 34314
" />
<path d="M96466 34314
L96466 39747
" />
<path d="M91033 39747
L91033 34314
" />
<path d="M89158 47247
L94591 47247
" />
<path d="M94591 41814
L89158 41814
" />
<path d="M94591 41814
L94591 47247
" />
<path d="M89158 47247
L89158 41814
" />
<path d="M91033 47247
L96466 47247
" />
<path d="M96466 41814
L91033 41814
" />
<path d="M96466 41814
L96466 47247
" />
<path d="M91033 47247
L91033 41814
" />
<path d="M83533 39747
L88966 39747
" />
<path d="M88966 34314
L83533 34314
" />
<path d="M88966 34314
L88966 39747
" />
<path d="M83533 39747
L83533 34314
" />
<path d="M76033 39747
L81466 39747
" />
<path d="M81466 34314
L76033 34314
" />
<path d="M81466 34314
L81466 39747
" />
<path d="M76033 39747
L76033 34314
" />
<path d="M68533 39747
L73966 39747
" />
<path d="M73966 34314
L68533 34314
" />
<path d="M73966 34314
L73966 39747
" />
<path d="M68533 39747
L68533 34314
" />
<path d="M61033 39747
L66466 39747
" />
<path d="M66466 34314
L61033 34314
" />
<path d="M66466 34314
L66466 39747
" />
<path d="M61033 39747
L61033 34314
" />
<path d="M53533 39747
L58966 39747
" />
<path d="M58966 34314
L53533 34314
" />
<path d="M58966 34314
L58966 39747
" />
<path d="M53533 39747
L53533 34314
" />
<path d="M46033 39747
L51466 39747
" />
<path d="M51466 34314
L46033 34314
" />
<path d="M51466 34314
L51466 39747
" />
<path d="M46033 39747
L46033 34314
" />
<path d="M38533 39747
L43966 39747
" />
<path d="M43966 34314
L38533 34314
" />
<path d="M43966 34314
L43966 39747
" />
<path d="M38533 39747
L38533 34314
" />
<path d="M57283 47247
L62716 47247
" />
<path d="M62716 41814
L57283 41814
" />
<path d="M62716 41814
L62716 47247
" />
<path d="M57283 47247
L57283 41814
" />
<path d="M25408 47247
L30841 47247
" />
<path d="M30841 41814
L25408 41814
" />
<path d="M30841 41814
L30841 47247
" />
<path d="M25408 47247
L25408 41814
" />
<path d="M23533 47247
L28966 47247
" />
<path d="M28966 41814
L23533 41814
" />
<path d="M28966 41814
L28966 47247
" />
<path d="M23533 47247
L23533 41814
" />
<path d="M31033 39747
L36466 39747
" />
<path d="M36466 34314
L31033 34314
" />
<path d="M36466 34314
L36466 39747
" />
<path d="M31033 39747
L31033 34314
" />
<path d="M23533 39747
L28966 39747
" />
<path d="M28966 34314
L23533 34314
" />
<path d="M28966 34314
L28966 39747
" />
<path d="M23533 39747
L23533 34314
" />
<path d="M12283 39747
L17716 39747
" />
<path d="M17716 34314
L12283 34314
" />
<path d="M17716 34314
L17716 39747
" />
<path d="M12283 39747
L12283 34314
" />
<path d="M9471 28497
L14904 28497
" />
<path d="M14904 23064
L9471 23064
" />
<path d="M14904 23064
L14904 28497
" />
<path d="M9471 28497
L9471 23064
" />
<path d="M10408 32247
L15841 32247
" />
<path d="M15841 26814
L10408 26814
" />
<path d="M15841 26814
L15841 32247
" />
<path d="M10408 32247
L10408 26814
" />
<path d="M19783 32247
L25216 32247
" />
<path d="M25216 26814
L19783 26814
" />
<path d="M25216 26814
L25216 32247
" />
<path d="M19783 32247
L19783 26814
" />
<path d="M27283 32247
L32716 32247
" />
<path d="M32716 26814
L27283 26814
" />
<path d="M32716 26814
L32716 32247
" />
<path d="M27283 32247
L27283 26814
" />
<path d="M34783 32247
L40216 32247
" />
<path d="M40216 26814
L34783 26814
" />
<path d="M40216 26814
L40216 32247
" />
<path d="M34783 32247
L34783 26814
" />
<path d="M42283 32247
L47716 32247
" />
<path d="M47716 26814
L42283 26814
" />
<path d="M47716 26814
L47716 32247
" />
<path d="M42283 32247
L42283 26814
" />
<path d="M49783 32247
L55216 32247
" />
<path d="M55216 26814
L49783 26814
" />
<path d="M55216 26814
L55216 32247
" />
<path d="M49783 32247
L49783 26814
" />
<path d="M57283 32247
L62716 32247
" />
<path d="M62716 26814
L57283 26814
" />
<path d="M62716 26814
L62716 32247
" />
<path d="M57283 32247
L57283 26814
" />
<path d="M64783 32247
L70216 32247
" />
<path d="M70216 26814
L64783 26814
" />
<path d="M70216 26814
L70216 32247
" />
<path d="M64783 32247
L64783 26814
" />
<path d="M72283 32247
L77716 32247
" />
<path d="M77716 26814
L72283 26814
" />
<path d="M77716 26814
L77716 32247
" />
<path d="M72283 32247
L72283 26814
" />
<path d="M79783 32247
L85216 32247
" />
<path d="M85216 26814
L79783 26814
" />
<path d="M85216 26814
L85216 32247
" />
<path d="M79783 32247
L79783 26814
" />
<path d="M87283 32247
L92716 32247
" />
<path d="M92716 26814
L87283 26814
" />
<path d="M92716 26814
L92716 32247
" />
<path d="M87283 32247
L87283 26814
" />
<path d="M94783 32247
L100216 32247
" />
<path d="M100216 26814
L94783 26814
" />
<path d="M100216 26814
L100216 32247
" />
<path d="M94783 32247
L94783 26814
" />
<path d="M102283 24747
L107716 24747
" />
<path d="M107716 19314
L102283 19314
" />
<path d="M107716 19314
L107716 24747
" />
<path d="M102283 24747
L102283 19314
" />
<path d="M92908 24747
L98341 24747
" />
<path d="M98341 19314
L92908 19314
" />
<path d="M98341 19314
L98341 24747
" />
<path d="M92908 24747
L92908 19314
" />
<path d="M85408 24747
L90841 24747
" />
<path d="M90841 19314
L85408 19314
" />
<path d="M90841 19314
L90841 24747
" />
<path d="M85408 24747
L85408 19314
" />
<path d="M77908 24747
L83341 24747
" />
<path d="M83341 19314
L77908 19314
" />
<path d="M83341 19314
L83341 24747
" />
<path d="M77908 24747
L77908 19314
" />
<path d="M70408 24747
L75841 24747
" />
<path d="M75841 19314
L70408 19314
" />
<path d="M75841 19314
L75841 24747
" />
<path d="M70408 24747
L70408 19314
" />
<path d="M62908 24747
L68341 24747
" />
<path d="M68341 19314
L62908 19314
" />
<path d="M68341 19314
L68341 24747
" />
<path d="M62908 24747
L62908 19314
" />
<path d="M55408 24747
L60841 24747
" />
<path d="M60841 19314
L55408 19314
" />
<path d="M60841 19314
L60841 24747
" />
<path d="M55408 24747
L55408 19314
" />
<path d="M47908 24747
L53341 24747
" />
<path d="M53341 19314
L47908 19314
" />
<path d="M53341 19314
L53341 24747
" />
<path d="M47908 24747
L47908 19314
" />
<path d="M40408 24747
L45841 24747
" />
<path d="M45841 19314
L40408 19314
" />
<path d="M45841 19314
L45841 24747
" />
<path d="M40408 24747
L40408 19314
" />
<path d="M32908 24747
L38341 24747
" />
<path d="M38341 19314
L32908 19314
" />
<path d="M38341 19314
L38341 24747
" />
<path d="M32908 24747
L32908 19314
" />
<path d="M25408 24747
L30841 24747
" />
<path d="M30841 19314
L25408 19314
" />
<path d="M30841 19314
L30841 24747
" />
<path d="M25408 24747
L25408 19314
" />
<path d="M17908 24747
L23341 24747
" />
<path d="M23341 19314
L17908 19314
" />
<path d="M23341 19314
L23341 24747
" />
<path d="M17908 24747
L17908 19314
" />
<path d="M9471 24747
L14904 24747
" />
<path d="M14904 19314
L9471 19314
" />
<path d="M14904 19314
L14904 24747
" />
<path d="M9471 24747
L9471 19314
" />
<path d="M96658 17247
L102091 17247
" />
<path d="M102091 11814
L96658 11814
" />
<path d="M102091 11814
L102091 17247
" />
<path d="M96658 17247
L96658 11814
" />
<path d="M89158 17247
L94591 17247
" />
<path d="M94591 11814
L89158 11814
" />
<path d="M94591 11814
L94591 17247
" />
<path d="M89158 17247
L89158 11814
" />
<path d="M81658 17247
L87091 17247
" />
<path d="M87091 11814
L81658 11814
" />
<path d="M87091 11814
L87091 17247
" />
<path d="M81658 17247
L81658 11814
" />
<path d="M74158 17247
L79591 17247
" />
<path d="M79591 11814
L74158 11814
" />
<path d="M79591 11814
L79591 17247
" />
<path d="M74158 17247
L74158 11814
" />
<path d="M66658 17247
L72091 17247
" />
<path d="M72091 11814
L66658 11814
" />
<path d="M72091 11814
L72091 17247
" />
<path d="M66658 17247
L66658 11814
" />
<path d="M59158 17247
L64591 17247
" />
<path d="M64591 11814
L59158 11814
" />
<path d="M64591 11814
L64591 17247
" />
<path d="M59158 17247
L59158 11814
" />
<path d="M51658 17247
L57091 17247
" />
<path d="M57091 11814
L51658 11814
" />
<path d="M57091 11814
L57091 17247
" />
<path d="M51658 17247
L51658 11814
" />
<path d="M44158 17247
L49591 17247
" />
<path d="M49591 11814
L44158 11814
" />
<path d="M49591 11814
L49591 17247
" />
<path d="M44158 17247
L44158 11814
" />
<path d="M36658 17247
L42091 17247
" />
<path d="M42091 11814
L36658 11814
" />
<path d="M42091 11814
L42091 17247
" />
<path d="M36658 17247
L36658 11814
" />
<path d="M29158 17247
L34591 17247
" />
<path d="M34591 11814
L29158 11814
" />
<path d="M34591 11814
L34591 17247
" />
<path d="M29158 17247
L29158 11814
" />
<path d="M21658 17247
L27091 17247
" />
<path d="M27091 11814
L21658 11814
" />
<path d="M27091 11814
L27091 17247
" />
<path d="M21658 17247
L21658 11814
" />
<path d="M14158 17247
L14158 11814
" />
<path d="M19591 11814
L19591 17247
" />
<path d="M19591 11814
L14158 11814
" />
<path d="M14158 17247
L19591 17247
" />
<g >
</g>
<g style="fill:#000000; fill-opacity:0.0; 
stroke:#000000; stroke-width:39.3701; stroke-opacity:1; 
stroke-linecap:round; stroke-linejoin:round;">
<path d="M11550 39171
L9050 39171
" />
<path d="M11550 39251
L9050 39251
" />
<path d="M9050.06 39171.1 A40.315 40.315 0.0 0 0 9050.06 39251.7 " />
<path d="M11550.1 39251.7 A40.315 40.315 0.0 0 0 11550.1 39171.1 " />
<path d="M11590 39211
L11590 34491
" />
<path d="M11509 39211
L11509 34491
" />
<path d="M11590.4 34491.4 A40.315 40.315 0.0 0 0 11509.7 34491.4 " />
<path d="M11509.7 39211.4 A40.315 40.315 0.0 0 0 11590.4 39211.4 " />
<path d="M11550 34451
L9050 34451
" />
<path d="M11550 34531
L9050 34531
" />
<path d="M9050.06 34451.1 A40.315 40.315 0.0 0 0 9050.06 34531.7 " />
<path d="M11550.1 34531.7 A40.315 40.315 0.0 0 0 11550.1 34451.1 " />
<path d="M9090 39211
L9090 34491
" />
<path d="M9009 39211
L9009 34491
" />
<path d="M9090.38 34491.4 A40.315 40.315 0.0 0 0 9009.75 34491.4 " />
<path d="M9009.75 39211.4 A40.315 40.315 0.0 0 0 9090.38 39211.4 " />
<path d="M20950 39171
L18450 39171
" />
<path d="M20950 39251
L18450 39251
" />
<path d="M18450.1 39171.1 A40.315 40.315 0.0 0 0 18450.1 39251.7 " />
<path d="M20950.1 39251.7 A40.315 40.315 0.0 0 0 20950.1 39171.1 " />
<path d="M20990 39211
L20990 34491
" />
<path d="M20909 39211
L20909 34491
" />
<path d="M20990.4 34491.4 A40.315 40.315 0.0 0 0 20909.7 34491.4 " />
<path d="M20909.7 39211.4 A40.315 40.315 0.0 0 0 20990.4 39211.4 " />
<path d="M18490 39211
L18490 34491
" />
<path d="M18409 39211
L18409 34491
" />
<path d="M18490.4 34491.4 A40.315 40.315 0.0 0 0 18409.7 34491.4 " />
<path d="M18409.7 39211.4 A40.315 40.315 0.0 0 0 18490.4 39211.4 " />
<path d="M20950 34451
L18450 34451
" />
<path d="M20950 34531
L18450 34531
" />
<path d="M18450.1 34451.1 A40.315 40.315 0.0 0 0 18450.1 34531.7 " />
<path d="M20950.1 34531.7 A40.315 40.315 0.0 0 0 20950.1 34451.1 " />
</g>
<g >
</g>
<g style="fill:#000000; fill-opacity:0.0; 
stroke:#000000; stroke-width:39.3701; stroke-opacity:1; 
stroke-linecap:round; stroke-linejoin:round;">
<path d="M108077 29231
L108077 31731
" />
<path d="M108158 29231
L108158 31731
" />
<path d="M108078 31731.4 A40.315 40.315 0.0 0 0 108158 31731.4 " />
<path d="M108158 29231.4 A40.315 40.315 0.0 0 0 108078 29231.4 " />
<path d="M108117 29191
L103397 29191
" />
<path d="M108117 29271
L103397 29271
" />
<path d="M103398 29191 A40.315 40.315 0.0 0 0 103398 29271.7 " />
<path d="M108118 29271.7 A40.315 40.315 0.0 0 0 108118 29191 " />
<path d="M103357 29231
L103357 31731
" />
<path d="M103438 29231
L103438 31731
" />
<path d="M103358 31731.4 A40.315 40.315 0.0 0 0 103438 31731.4 " />
<path d="M103438 29231.4 A40.315 40.315 0.0 0 0 103358 29231.4 " />
<path d="M108117 31691
L103397 31691
" />
<path d="M108117 31771
L103397 31771
" />
<path d="M103398 31691 A40.315 40.315 0.0 0 0 103398 31771.7 " />
<path d="M108118 31771.7 A40.315 40.315 0.0 0 0 108118 31691 " />
<path d="M108077 19831
L108077 22331
" />
<path d="M108158 19831
L108158 22331
" />
<path d="M108078 22331.4 A40.315 40.315 0.0 0 0 108158 22331.4 " />
<path d="M108158 19831.4 A40.315 40.315 0.0 0 0 108078 19831.4 " />
<path d="M108117 19791
L103397 19791
" />
<path d="M108117 19871
L103397 19871
" />
<path d="M103398 19791 A40.315 40.315 0.0 0 0 103398 19871.7 " />
<path d="M108118 19871.7 A40.315 40.315 0.0 0 0 108118 19791 " />
<path d="M108117 22291
L103397 22291
" />
<path d="M108117 22371
L103397 22371
" />
<path d="M103398 22291 A40.315 40.315 0.0 0 0 103398 22371.7 " />
<path d="M108118 22371.7 A40.315 40.315 0.0 0 0 108118 22291 " />
<path d="M103357 19831
L103357 22331
" />
<path d="M103438 19831
L103438 22331
" />
<path d="M103358 22331.4 A40.315 40.315 0.0 0 0 103438 22331.4 " />
<path d="M103438 19831.4 A40.315 40.315 0.0 0 0 103358 19831.4 " />
</g>
<g >
</g>
<g style="fill:#000000; fill-opacity:0.0; 
stroke:#000000; stroke-width:39.3701; stroke-opacity:1; 
stroke-linecap:round; stroke-linejoin:round;">
<path d="M14767 31731
L14767 29231
" />
<path d="M14687 31731
L14687 29231
" />
<path d="M14767.9 29231.4 A40.315 40.315 0.0 0 0 14687.2 29231.4 " />
<path d="M14687.2 31731.4 A40.315 40.315 0.0 0 0 14767.9 31731.4 " />
<path d="M10007 29271
L14727 29271
" />
<path d="M10007 29191
L14727 29191
" />
<path d="M14727.6 29271.7 A40.315 40.315 0.0 0 0 14727.6 29191 " />
<path d="M10007.6 29191 A40.315 40.315 0.0 0 0 10007.6 29271.7 " />
<path d="M10007 31771
L14727 31771
" />
<path d="M10007 31691
L14727 31691
" />
<path d="M14727.6 31771.7 A40.315 40.315 0.0 0 0 14727.6 31691 " />
<path d="M10007.6 31691 A40.315 40.315 0.0 0 0 10007.6 31771.7 " />
<path d="M10047 31731
L10047 29231
" />
<path d="M9967 31731
L9967 29231
" />
<path d="M10047.9 29231.4 A40.315 40.315 0.0 0 0 9967.24 29231.4 " />
<path d="M9967.24 31731.4 A40.315 40.315 0.0 0 0 10047.9 31731.4 " />
<path d="M10007 19871
L14727 19871
" />
<path d="M10007 19791
L14727 19791
" />
<path d="M14727.6 19871.7 A40.315 40.315 0.0 0 0 14727.6 19791 " />
<path d="M10007.6 19791 A40.315 40.315 0.0 0 0 10007.6 19871.7 " />
<path d="M14767 22331
L14767 19831
" />
<path d="M14687 22331
L14687 19831
" />
<path d="M14767.9 19831.4 A40.315 40.315 0.0 0 0 14687.2 19831.4 " />
<path d="M14687.2 22331.4 A40.315 40.315 0.0 0 0 14767.9 22331.4 " />
<path d="M10007 22371
L14727 22371
" />
<path d="M10007 22291
L14727 22291
" />
<path d="M14727.6 22371.7 A40.315 40.315 0.0 0 0 14727.6 22291 " />
<path d="M10007.6 22291 A40.315 40.315 0.0 0 0 10007.6 22371.7 " />
<path d="M10047 22331
L10047 19831
" />
<path d="M9967 22331
L9967 19831
" />
<path d="M10047.9 19831.4 A40.315 40.315 0.0 0 0 9967.24 19831.4 " />
<path d="M9967.24 22331.4 A40.315 40.315 0.0 0 0 10047.9 22331.4 " />
</g>
<g >
</g>
<g >
</g>
<g >
</g>
<g >
</g>
<g >
</g>
<g >
</g>
<g >
</g>
<g >
</g>
<g >
</g>
<g >
</g>
<g >
</g>
<g >
</g>
<g >
</g>
<g >
</g>
<g >
</g>
<g >
</g>
<g >
</g>
<g >
</g>
<g >
</g>
<g >
</g>
<g >
</g>
<g >
</g>
<g >
</g>
<g >
</g>
<g >
</g>
<g >
</g>
<g >
</g>
<g >
</g>
<g >
</g>
<g >
</g>
<g >
</g>
<g >
</g>
<g >
</g>
<g >
</g>
<g >
</g>
<g >
</g>
<g >
</g>
<g >
</g>
<g >
</g>
<g >
</g>
<g >
</g>
<g >
</g>
<g >
</g>
<g >
</g>
<g >
</g>
<g >
</g>
<g >
</g>
<g >
</g>
<g >
</g>
<g >
</g>
<g >
</g>
<g >
</g>
<g >
</g>
<g >
</g>
<g >
</g>
<g >
</g>
<g >
</g>
<g >
</g>
<g >
</g>
<g >
</g>
<g >
</g>
<g >
</g>
<g >
</g>
<g >
</g>
<g >
</g>
<g >
</g>
<g >
</g>
<g >
</g>
<g >
</g>
<g >
</g>
<g >
</g>
<g >
</g>
<g >
</g>
<g >
</g>
<g >
</g>
<g >
</g>
<g >
</g>
<g >
</g>
<g >
</g>
<g >
</g>
<g >
</g>
<g >
</g>
<g >
</g>
<g >
</g>
<g >
</g>
<g >
</g>
<g >
</g>
<g >
</g>
<g >
</g>
<g >
</g>
<g >
</g>
<g >
</g>
<g >
</g>
<g >
</g>
<g >
</g>
<g >
</g>
<g >
</g>
<g >
</g>
<g >
</g>
<g >
</g>
<g >
</g>
<g >
</g>
<g >
</g>
<g >
</g>
<g >
</g>
<g >
</g>
<g >
</g>
<g >
</g>
<g >
</g>
<g >
</g>
<g >
</g>
<g >
</g>
<g >
</g>
<g >
</g>
<g >
</g>
<g >
</g>
<g >
</g>
<g >
</g>
<g >
</g>
<g >
</g>
<g >
</g>
<g >
</g>
<g >
</g>
<g >
</g>
<g >
</g>
<g >
</g>
<g >
</g>
<g >
</g>
<g >
</g>
<g >
</g>
<g >
</g>
<g >
</g>
<g >
</g>
<g >
</g>
<g >
</g>
<g >
</g>
<g >
</g>
<g >
</g>
<g >
</g>
<g >
</g>
<g >
</g>
<g >
</g>
<g >
</g>
<g >
</g>
<g >
</g>
<g >
</g>
<g >
</g>
<g >
</g>
<g >
</g>
<g >
</g>
<g >
</g>
<g >
</g>
<g >
</g>
<g >
</g>
<g >
</g>
<g >
</g>
<g >
</g>
<g >
</g>
<g >
</g>
<g >
</g>
<g >
</g>
<g >
</g>
<g >
</g>
<g >
</g>
<g >
</g>
<g >
</g>
<g >
</g>
<g >
</g>
<g >
</g>
<g >
</g>
<g >
</g>
<g >
</g>
<g >
</g>
<g >
</g>
<g >
</g>
<g >
</g>
<g >
</g>
<g >
</g>
<g >
</g>
<g >
</g>
<g >
</g>
<g >
</g>
<g >
</g>
<g >
</g>
<g >
</g>
<g >
</g>
<g >
</g>
<g >
</g>
<g >
</g>
<g >
</g>
<g >
</g>
<g >
</g>
<g >
</g>
<g >
</g>
<g >
</g>
<g >
</g>
<g >
</g>
<g >
</g>
<g >
</g>
<g >
</g>
<g >
</g>
<g >
</g>
<g >
</g>
<g >
</g>
</g>
<g style="fill:#000000; fill-opacity:0.0; 
stroke:#000000; stroke-width:39.3701; stroke-opacity:1; 
stroke-linecap:round; stroke-linejoin:round;">
</g>
<g style="fill:#000000; fill-opacity:0.0; 
stroke:#000000; stroke-width:19.685; stroke-opacity:1; 
stroke-linecap:round; stroke-linejoin:round;">
<path d="M103125 18281
L103594 18281
" />
<path d="M103125 17812
L103125 18281
" />
<path d="M108281 18281
L109219 18281
" />
<path d="M108281 14998
L108281 18281
" />
<path d="M103594 14998
L108281 14998
" />
<path d="M103594 17812
L103594 14998
" />
<path d="M103594 18281
L103594 17812
" />
<path d="M12656.3 18281.3 A468.752 468.752 0.0 0 0 13125.1 17812.6 " />
<path d="M14062.6 17812.6 A468.752 468.752 0.0 0 0 14057.5 18750.1 " />
<path d="M27187 18750
L14057 18750
" />
<path d="M27187 17812
L14062 17812
" />
<path d="M29062 18750
L42187 18750
" />
<path d="M42187 17812
L29062 17812
" />
<path d="M44062 18750
L57187 18750
" />
<path d="M57187 17812
L44062 17812
" />
<path d="M59062 18750
L72187 18750
" />
<path d="M72187 17812
L59062 17812
" />
<path d="M74062 18750
L87187 18750
" />
<path d="M87187 17812
L74062 17812
" />
<path d="M89062 18750
L102187 18750
" />
<path d="M102187 17812
L89062 17812
" />
<path d="M102188 18750.1 A468.752 468.752 0.0 0 0 102188 17812.6 " />
<path d="M89062.9 17812.6 A468.752 468.752 0.0 0 0 89062.9 18750.1 " />
<path d="M87187.9 18750.1 A468.752 468.752 0.0 0 0 87187.9 17812.6 " />
<path d="M74062.8 17812.6 A468.752 468.752 0.0 0 0 74062.8 18750.1 " />
<path d="M72187.8 18750.1 A468.752 468.752 0.0 0 0 72187.8 17812.6 " />
<path d="M59062.7 17812.6 A468.752 468.752 0.0 0 0 59062.7 18750.1 " />
<path d="M57187.7 18750.1 A468.752 468.752 0.0 0 0 57187.7 17812.6 " />
<path d="M44062.7 17812.6 A468.752 468.752 0.0 0 0 44062.7 18750.1 " />
<path d="M42187.7 18750.1 A468.752 468.752 0.0 0 0 42187.7 17812.6 " />
<path d="M29062.6 17812.6 A468.752 468.752 0.0 0 0 29062.6 18750.1 " />
<path d="M27187.6 18750.1 A468.752 468.752 0.0 0 0 27187.6 17812.6 " />
<path d="M13125 17812
L13125 12187
" />
<path d="M8906 18281
L12656 18281
" />
<path d="M7500 39375
L7500 19687
" />
<path d="M22500 40781
L8906 40781
" />
<path d="M22500 46875
L22500 40781
" />
<path d="M96094 48281
L23906 48281
" />
<path d="M97500 40781
L97500 46875
" />
<path d="M109219 40781
L97500 40781
" />
<path d="M110625 19687
L110625 39375
" />
<path d="M103125 12187
L103125 17812
" />
<path d="M14531 10781
L101719 10781
" />
<path d="M14532.5 10781.3 A1406.26 1406.26 0.0 0 0 13125.1 12187.6 " />
<path d="M8906.29 18281.3 A1406.26 1406.26 0.0 0 0 7500.03 19687.6 " />
<path d="M7500.03 39375.2 A1406.26 1406.26 0.0 0 0 8906.29 40781.4 " />
<path d="M22500.1 46875.2 A1406.26 1406.26 0.0 0 0 23906.4 48281.5 " />
<path d="M96094.2 48281.5 A1406.26 1406.26 0.0 0 0 97500.4 46875.2 " />
<path d="M109219 40781.4 A1406.26 1406.26 0.0 0 0 110625 39375.2 " />
<path d="M110625 19687.6 A1406.26 1406.26 0.0 0 0 109219 18281.3 " />
<path d="M103125 12187.6 A1406.26 1406.26 0.0 0 0 101719 10781.3 " />
<g >
</g>
<g >
</g>
<g >
</g>
<g >
</g>
<g >
</g>
<g >
</g>
<g >
</g>
<g >
</g>
<g >
</g>
<g >
</g>
<g >
</g>
<g >
</g>
<g >
</g>
<g >
</g>
<g >
</g>
<g >
</g>
<g >
</g>
<g >
</g>
<g >
</g>
<g >
</g>
<g >
</g>
<g >
</g>
<g >
</g>
<g >
</g>
<g >
</g>
<g >
</g>
<g >
</g>
<g >
</g>
<g >
</g>
<g >
</g>
<g >
</g>
<g >
</g>
<g >
</g>
<g >
</g>
<g >
</g>
<g >
</g>
<g >
</g>
<g >
</g>
<g >
</g>
<g >
</g>
<g >
</g>
<g >
</g>
<g >
</g>
<g >
</g>
<g >
</g>
<g >
</g>
<g >
</g>
<g >
</g>
<g >
</g>
<g >
</g>
<g >
</g>
<g >
</g>
<g >
</g>
<g >
</g>
<g >
</g>
<g >
</g>
<g >
</g>
<g >
</g>
<g >
</g>
<g >
</g>
<g >
</g>
<g >
</g>
<g >
</g>
<g >
</g>
<g >
</g>
<g >
</g>
<g >
</g>
<g >
</g>
<g >
</g>
<g >
</g>
<g >
</g>
<g >
</g>
<g >
</g>
<g >
</g>
<g >
</g>
<g >
</g>
<g >
</g>
<g >
</g>
<g >
</g>
<g >
</g>
<g >
</g>
<g >
</g>
<g >
</g>
<g >
</g>
<g >
</g>
<g >
</g>
<g >
</g>
<g >
</g>
<g >
</g>
<g >
</g>
<g >
</g>
<g >
</g>
<g >
</g>
<g >
</g>
<g >
</g>
<g >
</g>
<g >
</g>
<g >
</g>
<g >
</g>
<g >
</g>
<g >
</g>
<g >
</g>
<g >
</g>
<g >
</g>
<g >
</g>
<g >
</g>
<g >
</g>
<g >
</g>
<g >
</g>
<g >
</g>
<g >
</g>
<g >
</g>
<g >
</g>
<g >
</g>
<g >
</g>
<g >
</g>
<g >
</g>
<g >
</g>
<g >
</g>
<g >
</g>
<g >
</g>
<g >
</g>
<g >
</g>
<g >
</g>
<g >
</g>
<g >
</g>
<g >
</g>
<g >
</g>
<g >
</g>
<g >
</g>
<g >
</g>
<g >
</g>
<g >
</g>
<g >
</g>
<g >
</g>
<g >
</g>
<g >
</g>
<g >
</g>
<g >
</g>
<g >
</g>
<g >
</g>
<g >
</g>
<g >
</g>
<g >
</g>
<g >
</g>
<g >
</g>
<g >
</g>
<g >
</g>
<g >
</g>
<g >
</g>
<g >
</g>
<g >
</g>
<g >
</g>
<g >
</g>
<g >
</g>
<g >
</g>
<g >
</g>
<g >
</g>
<g >
</g>
<g >
</g>
<g >
</g>
<g >
</g>
<g >
</g>
<g >
</g>
<g >
</g>
<g >
</g>
<g >
</g>
<g >
</g>
<g >
</g>
<g >
</g>
<g >
</g>
<g >
</g>
<g >
</g>
<g >
</g>
<g >
</g>
<g >
</g>
<g >
</g>
<g >
</g>
<g >
</g>
<g >
</g>
<g >
</g>
<g >
</g>
<g >
</g>
<g >
</g>
<g >
</g>
<g >
</g>
<g >
</g>
<g >
</g>
<g >
</g>
<g >
</g>
<g >
</g>
<g >
</g>
<g >
</g>
<g >
</g>
<g >
</g>
<g >
</g>
<g >
</g>
<g >
</g>
<g >
</g>
<g >
</g>
<g >
</g>
<g >
</g>
<g >
</g>
<g >
</g>
<g >
</g>
<g >
</g>
<g >
</g>
</g> 
</svg>
