G04 #@! TF.GenerationSoftware,KiCad,Pcbnew,(5.1.4)-1*
G04 #@! TF.CreationDate,2021-02-18T16:48:32-08:00*
G04 #@! TF.ProjectId,IBM029Punch,49424d30-3239-4507-956e-63682e6b6963,rev?*
G04 #@! TF.SameCoordinates,Original*
G04 #@! TF.FileFunction,Profile,NP*
%FSLAX46Y46*%
G04 Gerber Fmt 4.6, Leading zero omitted, Abs format (unit mm)*
G04 Created by KiCad (PCBNEW (5.1.4)-1) date 2021-02-18 16:48:32*
%MOMM*%
%LPD*%
G04 APERTURE LIST*
%ADD10C,0.050000*%
G04 APERTURE END LIST*
D10*
X269082380Y-35718900D02*
X270273010Y-35718900D01*
X269082380Y-34528270D02*
X269082380Y-35718900D01*
X282179310Y-35718900D02*
X284560570Y-35718900D01*
X282179310Y-27380000D02*
X282179310Y-35718900D01*
X270273010Y-27380000D02*
X282179310Y-27380000D01*
X270273010Y-34528270D02*
X270273010Y-27380000D01*
X270273010Y-35718900D02*
X270273010Y-34528270D01*
X40481421Y-34528270D02*
G75*
G02X39290790Y-35718901I-1190631J0D01*
G01*
X42849801Y-36909461D02*
G75*
G02X42862680Y-34528269I12879J1190561D01*
G01*
X76200320Y-36909530D02*
X42849800Y-36909530D01*
X76200320Y-34528270D02*
X42862680Y-34528270D01*
X80962840Y-36909530D02*
X114300480Y-36909530D01*
X114300480Y-34528270D02*
X80962840Y-34528270D01*
X119063000Y-36909530D02*
X152400640Y-36909530D01*
X152400640Y-34528270D02*
X119063000Y-34528270D01*
X157163160Y-36909530D02*
X190500800Y-36909530D01*
X190500800Y-34528270D02*
X157163160Y-34528270D01*
X195263320Y-36909530D02*
X228600960Y-36909530D01*
X228600960Y-34528270D02*
X195263320Y-34528270D01*
X233363480Y-36909530D02*
X266701120Y-36909530D01*
X266701120Y-34528270D02*
X233363480Y-34528270D01*
X266701120Y-34528269D02*
G75*
G02X266701120Y-36909531I0J-1190631D01*
G01*
X233363480Y-36909531D02*
G75*
G02X233363480Y-34528269I0J1190631D01*
G01*
X228600960Y-34528269D02*
G75*
G02X228600960Y-36909531I0J-1190631D01*
G01*
X195263320Y-36909531D02*
G75*
G02X195263320Y-34528269I0J1190631D01*
G01*
X190500800Y-34528269D02*
G75*
G02X190500800Y-36909531I0J-1190631D01*
G01*
X157163160Y-36909531D02*
G75*
G02X157163160Y-34528269I0J1190631D01*
G01*
X152400640Y-34528269D02*
G75*
G02X152400640Y-36909531I0J-1190631D01*
G01*
X119063000Y-36909531D02*
G75*
G02X119063000Y-34528269I0J1190631D01*
G01*
X114300480Y-34528269D02*
G75*
G02X114300480Y-36909531I0J-1190631D01*
G01*
X80962840Y-36909531D02*
G75*
G02X80962840Y-34528269I0J1190631D01*
G01*
X76200320Y-34528269D02*
G75*
G02X76200320Y-36909531I0J-1190631D01*
G01*
X40481420Y-34528270D02*
X40481420Y-20240710D01*
X29765750Y-35718900D02*
X39290790Y-35718900D01*
X26193860Y-89297250D02*
X26193860Y-39290790D01*
X64294020Y-92869140D02*
X29765750Y-92869140D01*
X64294020Y-108347330D02*
X64294020Y-92869140D01*
X251222930Y-111919220D02*
X67865910Y-111919220D01*
X254794820Y-92869140D02*
X254794820Y-108347330D01*
X284560570Y-92869140D02*
X254794820Y-92869140D01*
X288132460Y-39290790D02*
X288132460Y-89297250D01*
X269082380Y-20240710D02*
X269082380Y-34528270D01*
X44053310Y-16668820D02*
X265510490Y-16668820D01*
X40481418Y-20240710D02*
G75*
G02X44056300Y-16668819I3571892J0D01*
G01*
X26193859Y-39290790D02*
G75*
G02X29765750Y-35718899I3571891J0D01*
G01*
X29765750Y-92869141D02*
G75*
G02X26193859Y-89297250I0J3571891D01*
G01*
X67865910Y-111919221D02*
G75*
G02X64294019Y-108347330I0J3571891D01*
G01*
X254794821Y-108347330D02*
G75*
G02X251222930Y-111919221I-3571891J0D01*
G01*
X288132461Y-89297250D02*
G75*
G02X284560570Y-92869141I-3571891J0D01*
G01*
X284560570Y-35718900D02*
G75*
G02X288132460Y-39290790I0J-3571890D01*
G01*
X265510490Y-16668820D02*
G75*
G02X269082380Y-20240710I0J-3571890D01*
G01*
M02*
