M48
; DRILL file {KiCad (5.1.4)-1} date 2/18/2021 4:48:34 PM
; FORMAT={-:-/ absolute / inch / decimal}
; #@! TF.CreationDate,2021-02-18T16:48:34-08:00
; #@! TF.GenerationSoftware,Kicad,Pcbnew,(5.1.4)-1
; #@! TF.FileFunction,Plated,1,2,PTH
FMAT,2
INCH
T1C0.0157
T2C0.0236
T3C0.0472
T4C0.0579
%
G90
G05
T1
X2.078Y-2.7552
X2.111Y-2.8123
X2.152Y-2.7552
X2.1613Y-2.8428
X2.848Y-3.673
X3.9311Y-3.8459
X4.358Y-3.66
X4.8069Y-3.6801
X5.273Y-3.661
X5.9515Y-3.6425
X6.282Y-3.885
X6.4733Y-4.2837
X6.7336Y-3.6254
X6.8823Y-4.2837
X7.5478Y-2.8494
X7.567Y-2.815
X7.6313Y-2.8466
X7.6592Y-2.8746
X8.0285Y-2.2075
X8.0571Y-2.2348
X8.0748Y-2.27
X8.3644Y-3.6297
X8.405Y-3.637
X8.446Y-3.641
X9.0201Y-2.8711
X9.0475Y-2.8428
X9.078Y-2.8123
X9.102Y-2.7552
X9.1598Y-2.8752
X9.1641Y-2.9198
X9.19Y-2.8123
X9.2093Y-3.6485
X9.211Y-2.8456
X9.2123Y-3.6877
X9.2134Y-3.604
X9.214Y-3.5623
X9.256Y-2.4027
X9.471Y-3.443
X9.5547Y-1.8193
X9.555Y-2.385
X9.56Y-2.509
X9.631Y-3.052
X9.6652Y-2.0052
X9.6652Y-2.2053
X9.7741Y-3.0081
X9.779Y-3.171
X9.8075Y-3.2057
X9.8199Y-2.6683
X9.8374Y-2.633
X9.8499Y-2.3319
X9.851Y-3.216
X9.864Y-2.604
X9.89Y-4.209
X9.9Y-3.379
X9.9002Y-3.2149
X9.9114Y-2.5656
X10.025Y-3.523
X10.037Y-2.332
X10.038Y-1.936
X10.139Y-3.465
X10.1517Y-3.5471
X10.1791Y-3.4938
X10.199Y-3.5541
X10.238Y-1.772
X10.255Y-3.6112
X10.268Y-2.629
X10.279Y-3.55
X10.2944Y-3.6112
X10.304Y-3.343
X10.3164Y-1.7435
X10.3555Y-2.597
X10.3759Y-1.5369
X10.45Y-1.577
X10.468Y-2.853
X10.4803Y-2.3937
X10.485Y-3.131
X10.573Y-2.827
X10.6895Y-3.0085
X10.696Y-1.371
X10.7262Y-1.4447
X10.7975Y-1.2813
X10.817Y-1.2471
X10.8563Y-1.2463
X10.876Y-1.2118
X10.905Y-1.184
X10.916Y-1.4779
X10.949Y-1.279
X11.057Y-1.371
X11.2202Y-1.8668
T3
X5.0156Y-3.799
X5.2125Y-3.8817
X7.2657Y-3.799
X7.4625Y-3.8817
X4.7344Y-3.799
X4.9312Y-3.8817
X7.8282Y-3.799
X8.025Y-3.8817
X7.5469Y-3.799
X7.7438Y-3.8817
X5.2969Y-3.799
X5.4937Y-3.8817
X6.9844Y-3.799
X7.1813Y-3.8817
T4
X3.3188Y-0.9313
X3.3703Y-0.8738
X3.5672Y-0.8541
X3.5688Y-0.8313
X10.6313Y-1.6813
X10.6829Y-1.6238
X10.8797Y-1.6041
X10.8813Y-1.5813
X2.7563Y-3.1813
X2.8078Y-3.1238
X3.0047Y-3.1041
X3.0063Y-3.0813
X7.8188Y-0.9313
X7.8704Y-0.8738
X8.0672Y-0.8541
X8.0688Y-0.8313
X9.3188Y-3.9313
X9.3704Y-3.8738
X9.5672Y-3.8541
X9.5688Y-3.8313
X8.5688Y-0.9313
X8.6204Y-0.8738
X8.8172Y-0.8541
X8.8188Y-0.8313
X4.0688Y-0.9313
X4.1203Y-0.8738
X4.3172Y-0.8541
X4.3188Y-0.8313
X3.6938Y-1.6813
X3.7453Y-1.6238
X3.9422Y-1.6041
X3.9438Y-1.5813
X1.3Y-2.0563
X1.3228Y-2.0578
X1.3425Y-2.2547
X1.4Y-2.3063
X1.6313Y-3.1813
X1.6828Y-3.1238
X1.8797Y-3.1041
X1.8813Y-3.0813
X8.9438Y-1.6813
X8.9954Y-1.6238
X9.1922Y-1.6041
X9.1938Y-1.5813
X5.7563Y-3.1813
X5.8078Y-3.1238
X6.0047Y-3.1041
X6.0063Y-3.0813
X5.3813Y-2.4313
X5.4328Y-2.3738
X5.6297Y-2.3541
X5.6313Y-2.3313
X1.35Y-1.6813
X1.4016Y-1.6238
X1.5984Y-1.6041
X1.6Y-1.5813
X8.0063Y-3.1813
X8.0579Y-3.1238
X8.2547Y-3.1041
X8.2563Y-3.0813
X5.1938Y-1.6813
X5.2453Y-1.6238
X5.4422Y-1.6041
X5.4438Y-1.5813
X10.5375Y-3.1813
X10.5891Y-3.1238
X10.786Y-3.1041
X10.7875Y-3.0813
X9.6938Y-1.6813
X9.7454Y-1.6238
X9.9422Y-1.6041
X9.9438Y-1.5813
X6.1313Y-3.9313
X6.1829Y-3.8738
X6.3797Y-3.8541
X6.3813Y-3.8313
X5.5688Y-0.9313
X5.6203Y-0.8738
X5.8172Y-0.8541
X5.8188Y-0.8313
X7.0688Y-0.9313
X7.1204Y-0.8738
X7.3172Y-0.8541
X7.3188Y-0.8313
X9.8813Y-2.4313
X9.9329Y-2.3738
X10.1297Y-2.3541
X10.1313Y-2.3313
X4.2563Y-3.1813
X4.3078Y-3.1238
X4.5047Y-3.1041
X4.5063Y-3.0813
X6.3188Y-0.9313
X6.3704Y-0.8738
X6.5672Y-0.8541
X6.5688Y-0.8313
X8.3813Y-2.4313
X8.4329Y-2.3738
X8.6297Y-2.3541
X8.6313Y-2.3313
X9.3188Y-0.9313
X9.3704Y-0.8738
X9.5672Y-0.8541
X9.5688Y-0.8313
X6.8813Y-2.4313
X6.9329Y-2.3738
X7.1297Y-2.3541
X7.1313Y-2.3313
X6.6938Y-1.6813
X6.7454Y-1.6238
X6.9422Y-1.6041
X6.9438Y-1.5813
X2.5688Y-0.9313
X2.6203Y-0.8738
X2.8172Y-0.8541
X2.8188Y-0.8313
X3.5063Y-3.1813
X3.5578Y-3.1238
X3.7547Y-3.1041
X3.7563Y-3.0813
X2.3813Y-2.4313
X2.4328Y-2.3738
X2.6297Y-2.3541
X2.6313Y-2.3313
X6.5063Y-3.1813
X6.5579Y-3.1238
X6.7547Y-3.1041
X6.7563Y-3.0813
X6.1313Y-2.4313
X6.1829Y-2.3738
X6.3797Y-2.3541
X6.3813Y-2.3313
X2.9438Y-1.6813
X2.9953Y-1.6238
X3.1922Y-1.6041
X3.1938Y-1.5813
X6.1313Y-3.9313
X6.1829Y-3.8738
X6.3797Y-3.8541
X6.3813Y-3.8313
X8.7563Y-3.1813
X8.8079Y-3.1238
X9.0047Y-3.1041
X9.0063Y-3.0813
X2.7563Y-3.9313
X2.8078Y-3.8738
X3.0047Y-3.8541
X3.0063Y-3.8313
X2.1938Y-1.6813
X2.2453Y-1.6238
X2.4422Y-1.6041
X2.4438Y-1.5813
X10.975Y-2.0063
X11.0325Y-2.0578
X11.0522Y-2.2547
X11.075Y-2.2563
X1.8188Y-0.9313
X1.8703Y-0.8738
X2.0672Y-0.8541
X2.0688Y-0.8313
X9.1313Y-2.4313
X9.1829Y-2.3738
X9.3797Y-2.3541
X9.3813Y-2.3313
X3.1313Y-2.4313
X3.1828Y-2.3738
X3.3797Y-2.3541
X3.3813Y-2.3313
X9.5063Y-3.9313
X9.5579Y-3.8738
X9.7547Y-3.8541
X9.7563Y-3.8313
X1.4438Y-2.4313
X1.4953Y-2.3738
X1.6922Y-2.3541
X1.6938Y-2.3313
X2.9438Y-3.9313
X2.9953Y-3.8738
X3.1922Y-3.8541
X3.1938Y-3.8313
X10.0688Y-0.9313
X10.1204Y-0.8738
X10.3172Y-0.8541
X10.3188Y-0.8313
X7.6313Y-2.4313
X7.6829Y-2.3738
X7.8797Y-2.3541
X7.8813Y-2.3313
X7.4438Y-1.6813
X7.4954Y-1.6238
X7.6922Y-1.6041
X7.6938Y-1.5813
X8.1938Y-1.6813
X8.2454Y-1.6238
X8.4422Y-1.6041
X8.4438Y-1.5813
X5.0063Y-3.1813
X5.0578Y-3.1238
X5.2547Y-3.1041
X5.2563Y-3.0813
X4.6313Y-2.4313
X4.6828Y-2.3738
X4.8797Y-2.3541
X4.8813Y-2.3313
X7.2563Y-3.1813
X7.3079Y-3.1238
X7.5047Y-3.1041
X7.5063Y-3.0813
X4.4438Y-1.6813
X4.4953Y-1.6238
X4.6922Y-1.6041
X4.6938Y-1.5813
X9.5063Y-3.1813
X9.5579Y-3.1238
X9.7547Y-3.1041
X9.7563Y-3.0813
X5.9438Y-1.6813
X5.9954Y-1.6238
X6.1922Y-1.6041
X6.1938Y-1.5813
X10.725Y-2.4313
X10.7766Y-2.3738
X10.9735Y-2.3541
X10.975Y-2.3313
X3.8813Y-2.4313
X3.9328Y-2.3738
X4.1297Y-2.3541
X4.1313Y-2.3313
X4.8188Y-0.9313
X4.8703Y-0.8738
X5.0672Y-0.8541
X5.0688Y-0.8313
T2
G00X10.705Y-1.1218
M15
G01X10.705Y-1.1454
M16
G05
G00X10.705Y-1.2765
M15
G01X10.705Y-1.3198
M16
G05
G00X11.0451Y-1.1218
M15
G01X11.0451Y-1.1454
M16
G05
G00X11.0451Y-1.2765
M15
G01X11.0451Y-1.3198
M16
G05
T0
M30
