<?xml version="1.0" standalone="no"?>
 <!DOCTYPE svg PUBLIC "-//W3C//DTD SVG 1.1//EN" 
 "http://www.w3.org/Graphics/SVG/1.1/DTD/svg11.dtd"> 
<svg xmlns="http://www.w3.org/2000/svg" version="1.1" 
    width="30.8356cm" height="14.0487cm" viewBox="0 0 121400 55310 ">
<title>SVG Picture created as IBM029Punch-brd.svg date 2021/02/25 16:09:22 </title>
  <desc>Picture generated by PCBNEW </desc>
<g style="fill:#000000; fill-opacity:1;stroke:#000000; stroke-opacity:1;
stroke-linecap:round; stroke-linejoin:round; "
 transform="translate(0 0) scale(1 1)">
</g>
<g style="fill:#000000; fill-opacity:0.0; 
stroke:#000000; stroke-width:-0.000393701; stroke-opacity:1; 
stroke-linecap:round; stroke-linejoin:round;">
</g>
<g style="fill:#000000; fill-opacity:0.0; 
stroke:#000000; stroke-width:19.685; stroke-opacity:1; 
stroke-linecap:round; stroke-linejoin:round;">
<path d="M103125 18281
L103594 18281
" />
<path d="M103125 17812
L103125 18281
" />
<path d="M108281 18281
L109219 18281
" />
<path d="M108281 14998
L108281 18281
" />
<path d="M103594 14998
L108281 14998
" />
<path d="M103594 17812
L103594 14998
" />
<path d="M103594 18281
L103594 17812
" />
<path d="M12656.3 18281.3 A468.752 468.752 0.0 0 0 13125.1 17812.6 " />
<path d="M14062.6 17812.6 A468.752 468.752 0.0 0 0 14057.5 18750.1 " />
<path d="M27187 18750
L14057 18750
" />
<path d="M27187 17812
L14062 17812
" />
<path d="M29062 18750
L42187 18750
" />
<path d="M42187 17812
L29062 17812
" />
<path d="M44062 18750
L57187 18750
" />
<path d="M57187 17812
L44062 17812
" />
<path d="M59062 18750
L72187 18750
" />
<path d="M72187 17812
L59062 17812
" />
<path d="M74062 18750
L87187 18750
" />
<path d="M87187 17812
L74062 17812
" />
<path d="M89062 18750
L102187 18750
" />
<path d="M102187 17812
L89062 17812
" />
<path d="M102188 18750.1 A468.752 468.752 0.0 0 0 102188 17812.6 " />
<path d="M89062.9 17812.6 A468.752 468.752 0.0 0 0 89062.9 18750.1 " />
<path d="M87187.9 18750.1 A468.752 468.752 0.0 0 0 87187.9 17812.6 " />
<path d="M74062.8 17812.6 A468.752 468.752 0.0 0 0 74062.8 18750.1 " />
<path d="M72187.8 18750.1 A468.752 468.752 0.0 0 0 72187.8 17812.6 " />
<path d="M59062.7 17812.6 A468.752 468.752 0.0 0 0 59062.7 18750.1 " />
<path d="M57187.7 18750.1 A468.752 468.752 0.0 0 0 57187.7 17812.6 " />
<path d="M44062.7 17812.6 A468.752 468.752 0.0 0 0 44062.7 18750.1 " />
<path d="M42187.7 18750.1 A468.752 468.752 0.0 0 0 42187.7 17812.6 " />
<path d="M29062.6 17812.6 A468.752 468.752 0.0 0 0 29062.6 18750.1 " />
<path d="M27187.6 18750.1 A468.752 468.752 0.0 0 0 27187.6 17812.6 " />
<path d="M13125 17812
L13125 12187
" />
<path d="M8906 18281
L12656 18281
" />
<path d="M7500 39375
L7500 19687
" />
<path d="M22500 40781
L8906 40781
" />
<path d="M22500 46875
L22500 40781
" />
<path d="M96094 48281
L23906 48281
" />
<path d="M97500 40781
L97500 46875
" />
<path d="M109219 40781
L97500 40781
" />
<path d="M110625 19687
L110625 39375
" />
<path d="M103125 12187
L103125 17812
" />
<path d="M14531 10781
L101719 10781
" />
<path d="M14532.5 10781.3 A1406.26 1406.26 0.0 0 0 13125.1 12187.6 " />
<path d="M8906.29 18281.3 A1406.26 1406.26 0.0 0 0 7500.03 19687.6 " />
<path d="M7500.03 39375.2 A1406.26 1406.26 0.0 0 0 8906.29 40781.4 " />
<path d="M22500.1 46875.2 A1406.26 1406.26 0.0 0 0 23906.4 48281.5 " />
<path d="M96094.2 48281.5 A1406.26 1406.26 0.0 0 0 97500.4 46875.2 " />
<path d="M109219 40781.4 A1406.26 1406.26 0.0 0 0 110625 39375.2 " />
<path d="M110625 19687.6 A1406.26 1406.26 0.0 0 0 109219 18281.3 " />
<path d="M103125 12187.6 A1406.26 1406.26 0.0 0 0 101719 10781.3 " />
<g >
</g>
<g >
</g>
<g >
</g>
<g >
</g>
<g >
</g>
<g >
</g>
<g >
</g>
<g >
</g>
<g >
</g>
<g >
</g>
<g >
</g>
<g >
</g>
<g >
</g>
<g >
</g>
<g >
</g>
<g >
</g>
<g >
</g>
<g >
</g>
<g >
</g>
<g >
</g>
<g >
</g>
<g >
</g>
<g >
</g>
<g >
</g>
<g >
</g>
<g >
</g>
<g >
</g>
<g >
</g>
<g >
</g>
<g >
</g>
<g >
</g>
<g >
</g>
<g >
</g>
<g >
</g>
<g >
</g>
<g >
</g>
<g >
</g>
<g >
</g>
<g >
</g>
<g >
</g>
<g >
</g>
<g >
</g>
<g >
</g>
<g >
</g>
<g >
</g>
<g >
</g>
<g >
</g>
<g >
</g>
<g >
</g>
<g >
</g>
<g >
</g>
<g >
</g>
<g >
</g>
<g >
</g>
<g >
</g>
<g >
</g>
<g >
</g>
<g >
</g>
<g >
</g>
<g >
</g>
<g >
</g>
<g >
</g>
<g >
</g>
<g >
</g>
<g >
</g>
<g >
</g>
<g >
</g>
<g >
</g>
<g >
</g>
<g >
</g>
<g >
</g>
<g >
</g>
<g >
</g>
<g >
</g>
<g >
</g>
<g >
</g>
<g >
</g>
<g >
</g>
<g >
</g>
<g >
</g>
<g >
</g>
<g >
</g>
<g >
</g>
<g >
</g>
<g >
</g>
<g >
</g>
<g >
</g>
<g >
</g>
<g >
</g>
<g >
</g>
<g >
</g>
<g >
</g>
<g >
</g>
<g >
</g>
<g >
</g>
<g >
</g>
<g >
</g>
<g >
</g>
<g >
</g>
<g >
</g>
<g >
</g>
<g >
</g>
<g >
</g>
<g >
</g>
<g >
</g>
<g >
</g>
<g >
</g>
<g >
</g>
<g >
</g>
<g >
</g>
<g >
</g>
<g >
</g>
<g >
</g>
<g >
</g>
<g >
</g>
<g >
</g>
<g >
</g>
<g >
</g>
<g >
</g>
<g >
</g>
<g >
</g>
<g >
</g>
<g >
</g>
<g >
</g>
<g >
</g>
<g >
</g>
<g >
</g>
<g >
</g>
<g >
</g>
<g >
</g>
<g >
</g>
<g >
</g>
<g >
</g>
<g >
</g>
<g >
</g>
<g >
</g>
<g >
</g>
<g >
</g>
<g >
</g>
<g >
</g>
<g >
</g>
<g >
</g>
<g >
</g>
<g >
</g>
<g >
</g>
<g >
</g>
<g >
</g>
</g> 
</svg>
